<?xml version="1.0" encoding="utf-8" standalone="no"?>
<!DOCTYPE svg PUBLIC "-//W3C//DTD SVG 1.1//EN"
  "http://www.w3.org/Graphics/SVG/1.1/DTD/svg11.dtd">
<svg xmlns:xlink="http://www.w3.org/1999/xlink" width="460.8pt" height="345.6pt" viewBox="0 0 460.8 345.6" xmlns="http://www.w3.org/2000/svg" version="1.1">
 <metadata>
  <rdf:RDF xmlns:dc="http://purl.org/dc/elements/1.1/" xmlns:cc="http://creativecommons.org/ns#" xmlns:rdf="http://www.w3.org/1999/02/22-rdf-syntax-ns#">
   <cc:Work>
    <dc:type rdf:resource="http://purl.org/dc/dcmitype/StillImage"/>
    <dc:date>2024-05-17T11:03:38.056072</dc:date>
    <dc:format>image/svg+xml</dc:format>
    <dc:creator>
     <cc:Agent>
      <dc:title>Matplotlib v3.8.0, https://matplotlib.org/</dc:title>
     </cc:Agent>
    </dc:creator>
   </cc:Work>
  </rdf:RDF>
 </metadata>
 <defs>
  <style type="text/css">*{stroke-linejoin: round; stroke-linecap: butt}</style>
 </defs>
 <g id="figure_1">
  <g id="patch_1">
   <path d="M 0 345.6 
L 460.8 345.6 
L 460.8 0 
L 0 0 
z
" style="fill: #ffffff"/>
  </g>
  <g id="axes_1">
   <g id="patch_2">
    <path d="M 57.6 307.584 
L 414.72 307.584 
L 414.72 41.472 
L 57.6 41.472 
z
" style="fill: #ffffff"/>
   </g>
   <g id="PolyCollection_1">
    <defs>
     <path id="mbbc39fa898" d="M 73.832727 -228.143108 
L 73.832727 -38.016 
L 75.017598 -38.016 
L 76.202468 -38.016 
L 77.387339 -38.016 
L 78.57221 -38.016 
L 79.75708 -38.016 
L 80.941951 -38.016 
L 82.126821 -38.016 
L 83.311692 -38.016 
L 84.496563 -38.016 
L 85.681433 -38.016 
L 86.866304 -38.016 
L 88.051175 -38.016 
L 89.236045 -38.016 
L 90.420916 -38.016 
L 91.605786 -38.016 
L 92.790657 -38.016 
L 93.975528 -38.016 
L 95.160398 -38.016 
L 96.345269 -38.016 
L 97.530139 -38.016 
L 98.71501 -38.016 
L 99.899881 -38.016 
L 101.084751 -38.016 
L 102.269622 -38.016 
L 103.454492 -38.016 
L 104.639363 -38.016 
L 105.824234 -38.016 
L 107.009104 -38.016 
L 108.193975 -38.016 
L 109.378845 -38.016 
L 110.563716 -38.016 
L 111.748587 -38.016 
L 112.933457 -38.016 
L 114.118328 -38.016 
L 115.303198 -38.016 
L 116.488069 -38.016 
L 117.67294 -38.016 
L 118.85781 -38.016 
L 120.042681 -38.016 
L 121.227551 -38.016 
L 122.412422 -38.016 
L 123.597293 -38.016 
L 124.782163 -38.016 
L 125.967034 -38.016 
L 127.151904 -38.016 
L 128.336775 -38.016 
L 129.521646 -38.016 
L 130.706516 -38.016 
L 131.891387 -38.016 
L 133.076257 -38.016 
L 134.261128 -38.016 
L 135.445999 -38.016 
L 136.630869 -38.016 
L 137.81574 -38.016 
L 139.00061 -38.016 
L 140.185481 -38.016 
L 141.370352 -38.016 
L 142.555222 -38.016 
L 143.740093 -38.016 
L 144.924964 -38.016 
L 146.109834 -38.016 
L 147.294705 -38.016 
L 148.479575 -38.016 
L 149.664446 -38.016 
L 150.849317 -38.016 
L 152.034187 -38.016 
L 153.219058 -38.016 
L 154.403928 -38.016 
L 155.588799 -38.016 
L 156.77367 -38.016 
L 157.95854 -38.016 
L 159.143411 -38.016 
L 160.328281 -38.016 
L 161.513152 -38.016 
L 162.698023 -38.016 
L 163.882893 -38.016 
L 165.067764 -38.016 
L 166.252634 -38.016 
L 167.437505 -38.016 
L 168.622376 -38.016 
L 169.807246 -38.016 
L 170.992117 -38.016 
L 172.176987 -38.016 
L 173.361858 -38.016 
L 174.546729 -38.016 
L 175.731599 -38.016 
L 176.91647 -38.016 
L 178.10134 -38.016 
L 179.286211 -38.016 
L 180.471082 -38.016 
L 181.655952 -38.016 
L 182.840823 -38.016 
L 184.025693 -38.016 
L 185.210564 -38.016 
L 186.395435 -38.016 
L 187.580305 -38.016 
L 188.765176 -38.016 
L 189.950046 -38.016 
L 191.134917 -38.016 
L 192.319788 -38.016 
L 193.504658 -38.016 
L 194.689529 -38.016 
L 195.874399 -38.016 
L 197.05927 -38.016 
L 198.244141 -38.016 
L 199.429011 -38.016 
L 200.613882 -38.016 
L 201.798752 -38.016 
L 202.983623 -38.016 
L 204.168494 -38.016 
L 205.353364 -38.016 
L 206.538235 -38.016 
L 207.723106 -38.016 
L 208.907976 -38.016 
L 210.092847 -38.016 
L 211.277717 -38.016 
L 212.462588 -38.016 
L 213.647459 -38.016 
L 214.832329 -38.016 
L 216.0172 -38.016 
L 217.20207 -38.016 
L 218.386941 -38.016 
L 219.571812 -38.016 
L 220.756682 -38.016 
L 221.941553 -38.016 
L 223.126423 -38.016 
L 224.311294 -38.016 
L 225.496165 -38.016 
L 226.681035 -38.016 
L 227.865906 -38.016 
L 229.050776 -38.016 
L 230.235647 -38.016 
L 231.420518 -38.016 
L 232.605388 -38.016 
L 233.790259 -38.016 
L 234.975129 -38.016 
L 236.16 -38.016 
L 237.344871 -38.016 
L 238.529741 -38.016 
L 239.714612 -38.016 
L 240.899482 -38.016 
L 242.084353 -38.016 
L 243.269224 -38.016 
L 244.454094 -38.016 
L 245.638965 -38.016 
L 246.823835 -38.016 
L 248.008706 -38.016 
L 249.193577 -38.016 
L 250.378447 -38.016 
L 251.563318 -38.016 
L 252.748188 -38.016 
L 253.933059 -38.016 
L 255.11793 -38.016 
L 256.3028 -38.016 
L 257.487671 -38.016 
L 258.672541 -38.016 
L 259.857412 -38.016 
L 261.042283 -38.016 
L 262.227153 -38.016 
L 263.412024 -38.016 
L 264.596894 -38.016 
L 265.781765 -38.016 
L 266.966636 -38.016 
L 268.151506 -38.016 
L 269.336377 -38.016 
L 270.521248 -38.016 
L 271.706118 -38.016 
L 272.890989 -38.016 
L 274.075859 -38.016 
L 275.26073 -38.016 
L 276.445601 -38.016 
L 277.630471 -38.016 
L 278.815342 -38.016 
L 280.000212 -38.016 
L 281.185083 -38.016 
L 282.369954 -38.016 
L 283.554824 -38.016 
L 284.739695 -38.016 
L 285.924565 -38.016 
L 287.109436 -38.016 
L 288.294307 -38.016 
L 289.479177 -38.016 
L 290.664048 -38.016 
L 291.848918 -38.016 
L 293.033789 -38.016 
L 294.21866 -38.016 
L 295.40353 -38.016 
L 296.588401 -38.016 
L 297.773271 -38.016 
L 298.958142 -38.016 
L 300.143013 -38.016 
L 301.327883 -38.016 
L 302.512754 -38.016 
L 303.697624 -38.016 
L 304.882495 -38.016 
L 306.067366 -38.016 
L 307.252236 -38.016 
L 308.437107 -38.016 
L 309.621977 -38.016 
L 310.806848 -38.016 
L 311.991719 -38.016 
L 313.176589 -38.016 
L 314.36146 -38.016 
L 315.54633 -38.016 
L 316.731201 -38.016 
L 317.916072 -38.016 
L 319.100942 -38.016 
L 320.285813 -38.016 
L 321.470683 -38.016 
L 322.655554 -38.016 
L 323.840425 -38.016 
L 325.025295 -38.016 
L 326.210166 -38.016 
L 327.395036 -38.016 
L 328.579907 -38.016 
L 329.764778 -38.016 
L 330.949648 -38.016 
L 332.134519 -38.016 
L 333.31939 -38.016 
L 334.50426 -38.016 
L 335.689131 -38.016 
L 336.874001 -38.016 
L 338.058872 -38.016 
L 339.243743 -38.016 
L 340.428613 -38.016 
L 341.613484 -38.016 
L 342.798354 -38.016 
L 343.983225 -38.016 
L 345.168096 -38.016 
L 346.352966 -38.016 
L 347.537837 -38.016 
L 348.722707 -38.016 
L 349.907578 -38.016 
L 351.092449 -38.016 
L 352.277319 -38.016 
L 353.46219 -38.016 
L 354.64706 -38.016 
L 355.831931 -38.016 
L 357.016802 -38.016 
L 358.201672 -38.016 
L 359.386543 -38.016 
L 360.571413 -38.016 
L 361.756284 -38.016 
L 362.941155 -38.016 
L 364.126025 -38.016 
L 365.310896 -38.016 
L 366.495766 -38.016 
L 367.680637 -38.016 
L 368.865508 -38.016 
L 370.050378 -38.016 
L 371.235249 -38.016 
L 372.420119 -38.016 
L 373.60499 -38.016 
L 374.789861 -38.016 
L 375.974731 -38.016 
L 377.159602 -38.016 
L 378.344472 -38.016 
L 379.529343 -38.016 
L 380.714214 -38.016 
L 381.899084 -38.016 
L 383.083955 -38.016 
L 384.268825 -38.016 
L 385.453696 -38.016 
L 386.638567 -38.016 
L 387.823437 -38.016 
L 389.008308 -38.016 
L 390.193179 -38.016 
L 391.378049 -38.016 
L 392.56292 -38.016 
L 393.74779 -38.016 
L 394.932661 -38.016 
L 396.117532 -38.016 
L 397.302402 -38.016 
L 398.487273 -38.016 
L 398.487273 -38.016 
L 398.487273 -38.016 
L 397.302402 -38.016 
L 396.117532 -38.016 
L 394.932661 -38.016 
L 393.74779 -38.016 
L 392.56292 -38.016 
L 391.378049 -38.016 
L 390.193179 -38.016 
L 389.008308 -38.016 
L 387.823437 -38.016 
L 386.638567 -38.016 
L 385.453696 -38.016 
L 384.268825 -38.016 
L 383.083955 -38.016 
L 381.899084 -38.016 
L 380.714214 -38.016 
L 379.529343 -38.016 
L 378.344472 -38.016 
L 377.159602 -38.016 
L 375.974731 -38.016 
L 374.789861 -38.016 
L 373.60499 -38.016 
L 372.420119 -38.016 
L 371.235249 -38.016 
L 370.050378 -38.016 
L 368.865508 -38.016 
L 367.680637 -38.016 
L 366.495766 -38.016 
L 365.310896 -38.016 
L 364.126025 -38.016 
L 362.941155 -38.016 
L 361.756284 -38.016 
L 360.571413 -38.016 
L 359.386543 -38.016 
L 358.201672 -38.016 
L 357.016802 -38.016 
L 355.831931 -38.016 
L 354.64706 -38.016 
L 353.46219 -38.016 
L 352.277319 -38.016 
L 351.092449 -38.016 
L 349.907578 -38.016 
L 348.722707 -38.016 
L 347.537837 -38.016 
L 346.352966 -38.016 
L 345.168096 -38.016 
L 343.983225 -38.016 
L 342.798354 -38.016 
L 341.613484 -38.016 
L 340.428613 -38.016 
L 339.243743 -38.016 
L 338.058872 -38.016 
L 336.874001 -38.016 
L 335.689131 -38.016 
L 334.50426 -38.016 
L 333.31939 -38.016 
L 332.134519 -38.016 
L 330.949648 -38.016 
L 329.764778 -38.016 
L 328.579907 -38.016 
L 327.395036 -38.016 
L 326.210166 -38.016 
L 325.025295 -38.016 
L 323.840425 -38.016 
L 322.655554 -38.016 
L 321.470683 -38.016 
L 320.285813 -38.016 
L 319.100942 -38.016 
L 317.916072 -38.016 
L 316.731201 -38.016 
L 315.54633 -38.016 
L 314.36146 -38.016 
L 313.176589 -38.016 
L 311.991719 -38.016 
L 310.806848 -38.016 
L 309.621977 -38.016 
L 308.437107 -38.016 
L 307.252236 -38.016 
L 306.067366 -38.016 
L 304.882495 -38.016 
L 303.697624 -38.016 
L 302.512754 -38.016 
L 301.327883 -38.016 
L 300.143013 -38.016 
L 298.958142 -38.016 
L 297.773271 -38.016 
L 296.588401 -38.016 
L 295.40353 -38.016 
L 294.21866 -38.016 
L 293.033789 -38.016 
L 291.848918 -38.016 
L 290.664048 -38.016 
L 289.479177 -38.016 
L 288.294307 -38.016 
L 287.109436 -38.016 
L 285.924565 -38.016 
L 284.739695 -38.016 
L 283.554824 -38.016 
L 282.369954 -38.016 
L 281.185083 -38.016 
L 280.000212 -38.016 
L 278.815342 -38.016 
L 277.630471 -38.016 
L 276.445601 -38.016 
L 275.26073 -38.016 
L 274.075859 -38.016 
L 272.890989 -38.016 
L 271.706118 -38.016 
L 270.521248 -38.016 
L 269.336377 -38.016 
L 268.151506 -38.016 
L 266.966636 -38.016 
L 265.781765 -38.016 
L 264.596894 -38.016 
L 263.412024 -38.016 
L 262.227153 -38.016 
L 261.042283 -38.016 
L 259.857412 -38.016 
L 258.672541 -38.016 
L 257.487671 -38.016 
L 256.3028 -38.016 
L 255.11793 -38.016 
L 253.933059 -38.016 
L 252.748188 -38.016 
L 251.563318 -38.016 
L 250.378447 -38.016 
L 249.193577 -38.016 
L 248.008706 -38.016 
L 246.823835 -38.016 
L 245.638965 -38.016 
L 244.454094 -38.016 
L 243.269224 -38.016 
L 242.084353 -38.016 
L 240.899482 -38.016 
L 239.714612 -38.016 
L 238.529741 -38.016 
L 237.344871 -38.016 
L 236.16 -38.016 
L 234.975129 -38.016 
L 233.790259 -38.016 
L 232.605388 -38.016 
L 231.420518 -38.016 
L 230.235647 -38.016 
L 229.050776 -38.016 
L 227.865906 -38.016 
L 226.681035 -38.016 
L 225.496165 -38.016 
L 224.311294 -38.016 
L 223.126423 -38.016 
L 221.941553 -38.016 
L 220.756682 -38.016 
L 219.571812 -38.016 
L 218.386941 -38.016 
L 217.20207 -38.016 
L 216.0172 -38.016 
L 214.832329 -38.016 
L 213.647459 -38.016 
L 212.462588 -38.016 
L 211.277717 -38.016 
L 210.092847 -38.016 
L 208.907976 -38.016 
L 207.723106 -38.016 
L 206.538235 -38.016 
L 205.353364 -38.016 
L 204.168494 -38.016 
L 202.983623 -38.016 
L 201.798752 -38.016 
L 200.613882 -38.016 
L 199.429011 -38.016 
L 198.244141 -38.016 
L 197.05927 -38.016 
L 195.874399 -38.016 
L 194.689529 -38.016 
L 193.504658 -38.016 
L 192.319788 -38.016 
L 191.134917 -38.016 
L 189.950046 -38.016 
L 188.765176 -38.016 
L 187.580305 -38.016 
L 186.395435 -38.016 
L 185.210564 -38.016 
L 184.025693 -38.016 
L 182.840823 -38.016 
L 181.655952 -38.016 
L 180.471082 -38.016 
L 179.286211 -38.016 
L 178.10134 -38.016 
L 176.91647 -38.016 
L 175.731599 -38.016 
L 174.546729 -38.016 
L 173.361858 -38.016 
L 172.176987 -38.016 
L 170.992117 -38.016 
L 169.807246 -38.016 
L 168.622376 -38.016 
L 167.437505 -38.016 
L 166.252634 -38.016 
L 165.067764 -38.016 
L 163.882893 -62.248256 
L 162.698023 -70.727661 
L 161.513152 -74.270168 
L 160.328281 -73.064208 
L 159.143411 -75.136952 
L 157.95854 -76.418284 
L 156.77367 -74.986207 
L 155.588799 -78.26491 
L 154.403928 -81.430555 
L 153.219058 -81.769731 
L 152.034187 -86.782001 
L 150.849317 -88.138706 
L 149.664446 -88.704 
L 148.479575 -87.912589 
L 147.294705 -93.414781 
L 146.109834 -95.638269 
L 144.924964 -97.711013 
L 143.740093 -97.296464 
L 142.555222 -99.44458 
L 141.370352 -102.384107 
L 140.185481 -109.054572 
L 139.00061 -108.790769 
L 137.81574 -115.122058 
L 136.630869 -115.649665 
L 135.445999 -119.455976 
L 134.261128 -119.192172 
L 133.076257 -119.342917 
L 131.891387 -124.732051 
L 130.706516 -128.500675 
L 129.521646 -130.46036 
L 128.336775 -137.733805 
L 127.151904 -137.017767 
L 125.967034 -140.974822 
L 124.782163 -146.250897 
L 123.597293 -147.230739 
L 122.412422 -152.5445 
L 121.227551 -153.411283 
L 120.042681 -159.441083 
L 118.85781 -164.641784 
L 117.67294 -172.555896 
L 116.488069 -172.51821 
L 115.303198 -175.420051 
L 114.118328 -184.087887 
L 112.933457 -182.919613 
L 111.748587 -191.700509 
L 110.563716 -192.303488 
L 109.378845 -193.923997 
L 108.193975 -201.385874 
L 107.009104 -208.433201 
L 105.824234 -206.172027 
L 104.639363 -213.3701 
L 103.454492 -216.234254 
L 102.269622 -223.130837 
L 101.084751 -223.696131 
L 99.899881 -229.650558 
L 98.71501 -232.853888 
L 97.530139 -235.642671 
L 96.345269 -239.486668 
L 95.160398 -244.197448 
L 93.975528 -248.644425 
L 92.790657 -250.189561 
L 91.605786 -253.882813 
L 90.420916 -258.970457 
L 89.236045 -264.171158 
L 88.051175 -253.694382 
L 86.866304 -259.950299 
L 85.681433 -264.548021 
L 84.496563 -265.414804 
L 83.311692 -275.703149 
L 82.126821 -274.760993 
L 80.941951 -255.201832 
L 79.75708 -272.160642 
L 78.57221 -291.456 
L 77.387339 -253.807441 
L 76.202468 -282.034439 
L 75.017598 -271.859152 
L 73.832727 -228.143108 
z
" style="stroke: #ff7f0e"/>
    </defs>
    <g clip-path="url(#p408d558991)">
     <use xlink:href="#mbbc39fa898" x="0" y="345.6" style="fill: #ff7f0e; fill-opacity: 0.25; stroke: #ff7f0e"/>
    </g>
   </g>
   <g id="PolyCollection_2">
    <defs>
     <path id="m0a962adcdf" d="M 73.832727 -38.016 
L 73.832727 -38.016 
L 75.017598 -38.016 
L 76.202468 -38.016 
L 77.387339 -38.016 
L 78.57221 -38.016 
L 79.75708 -38.016 
L 80.941951 -38.016 
L 82.126821 -38.016 
L 83.311692 -38.016 
L 84.496563 -38.016 
L 85.681433 -38.016 
L 86.866304 -38.016 
L 88.051175 -38.016 
L 89.236045 -38.016 
L 90.420916 -38.016 
L 91.605786 -38.016 
L 92.790657 -38.016 
L 93.975528 -38.016 
L 95.160398 -38.016 
L 96.345269 -38.016 
L 97.530139 -38.016 
L 98.71501 -38.016 
L 99.899881 -38.016 
L 101.084751 -38.016 
L 102.269622 -38.016 
L 103.454492 -38.016 
L 104.639363 -38.016 
L 105.824234 -38.016 
L 107.009104 -38.016 
L 108.193975 -38.016 
L 109.378845 -38.016 
L 110.563716 -38.016 
L 111.748587 -38.016 
L 112.933457 -38.016 
L 114.118328 -38.016 
L 115.303198 -38.016 
L 116.488069 -38.016 
L 117.67294 -38.016 
L 118.85781 -38.016 
L 120.042681 -38.016 
L 121.227551 -38.016 
L 122.412422 -38.016 
L 123.597293 -38.016 
L 124.782163 -38.016 
L 125.967034 -38.016 
L 127.151904 -38.016 
L 128.336775 -38.016 
L 129.521646 -38.016 
L 130.706516 -38.016 
L 131.891387 -38.016 
L 133.076257 -38.016 
L 134.261128 -38.016 
L 135.445999 -38.016 
L 136.630869 -38.016 
L 137.81574 -38.016 
L 139.00061 -38.016 
L 140.185481 -38.016 
L 141.370352 -38.016 
L 142.555222 -38.016 
L 143.740093 -38.016 
L 144.924964 -38.016 
L 146.109834 -38.016 
L 147.294705 -38.016 
L 148.479575 -38.016 
L 149.664446 -38.016 
L 150.849317 -38.016 
L 152.034187 -38.016 
L 153.219058 -38.016 
L 154.403928 -38.016 
L 155.588799 -38.016 
L 156.77367 -38.016 
L 157.95854 -38.016 
L 159.143411 -38.016 
L 160.328281 -38.016 
L 161.513152 -38.016 
L 162.698023 -38.016 
L 163.882893 -38.016 
L 165.067764 -38.016 
L 166.252634 -38.016 
L 167.437505 -38.016 
L 168.622376 -38.016 
L 169.807246 -38.016 
L 170.992117 -38.016 
L 172.176987 -38.016 
L 173.361858 -38.016 
L 174.546729 -38.016 
L 175.731599 -38.016 
L 176.91647 -38.016 
L 178.10134 -38.016 
L 179.286211 -38.016 
L 180.471082 -38.016 
L 181.655952 -38.016 
L 182.840823 -38.016 
L 184.025693 -38.016 
L 185.210564 -38.016 
L 186.395435 -38.016 
L 187.580305 -38.016 
L 188.765176 -38.016 
L 189.950046 -38.016 
L 191.134917 -38.016 
L 192.319788 -38.016 
L 193.504658 -38.016 
L 194.689529 -38.016 
L 195.874399 -38.016 
L 197.05927 -38.016 
L 198.244141 -38.016 
L 199.429011 -38.016 
L 200.613882 -38.016 
L 201.798752 -38.016 
L 202.983623 -38.016 
L 204.168494 -38.016 
L 205.353364 -38.016 
L 206.538235 -38.016 
L 207.723106 -38.016 
L 208.907976 -38.016 
L 210.092847 -38.016 
L 211.277717 -38.016 
L 212.462588 -38.016 
L 213.647459 -38.016 
L 214.832329 -38.016 
L 216.0172 -38.016 
L 217.20207 -38.016 
L 218.386941 -38.016 
L 219.571812 -38.016 
L 220.756682 -38.016 
L 221.941553 -38.016 
L 223.126423 -38.016 
L 224.311294 -38.016 
L 225.496165 -38.016 
L 226.681035 -38.016 
L 227.865906 -38.016 
L 229.050776 -38.016 
L 230.235647 -38.016 
L 231.420518 -38.016 
L 232.605388 -38.016 
L 233.790259 -38.016 
L 234.975129 -38.016 
L 236.16 -38.016 
L 237.344871 -38.016 
L 238.529741 -38.016 
L 239.714612 -38.016 
L 240.899482 -38.016 
L 242.084353 -38.016 
L 243.269224 -38.016 
L 244.454094 -38.016 
L 245.638965 -38.016 
L 246.823835 -38.016 
L 248.008706 -38.016 
L 249.193577 -38.016 
L 250.378447 -38.016 
L 251.563318 -38.016 
L 252.748188 -38.016 
L 253.933059 -38.016 
L 255.11793 -38.016 
L 256.3028 -38.016 
L 257.487671 -38.016 
L 258.672541 -38.016 
L 259.857412 -38.016 
L 261.042283 -38.016 
L 262.227153 -38.016 
L 263.412024 -38.016 
L 264.596894 -38.016 
L 265.781765 -38.016 
L 266.966636 -38.016 
L 268.151506 -38.016 
L 269.336377 -38.016 
L 270.521248 -38.016 
L 271.706118 -38.016 
L 272.890989 -38.016 
L 274.075859 -38.016 
L 275.26073 -38.016 
L 276.445601 -38.016 
L 277.630471 -38.016 
L 278.815342 -38.016 
L 280.000212 -38.016 
L 281.185083 -38.016 
L 282.369954 -38.016 
L 283.554824 -38.016 
L 284.739695 -38.016 
L 285.924565 -38.016 
L 287.109436 -38.016 
L 288.294307 -38.016 
L 289.479177 -38.016 
L 290.664048 -38.016 
L 291.848918 -38.016 
L 293.033789 -38.016 
L 294.21866 -38.016 
L 295.40353 -38.016 
L 296.588401 -38.016 
L 297.773271 -38.016 
L 298.958142 -38.016 
L 300.143013 -38.016 
L 301.327883 -38.016 
L 302.512754 -38.016 
L 303.697624 -38.016 
L 304.882495 -38.016 
L 306.067366 -38.016 
L 307.252236 -38.016 
L 308.437107 -38.016 
L 309.621977 -38.016 
L 310.806848 -38.016 
L 311.991719 -38.016 
L 313.176589 -38.016 
L 314.36146 -38.016 
L 315.54633 -38.016 
L 316.731201 -38.016 
L 317.916072 -38.016 
L 319.100942 -38.016 
L 320.285813 -38.016 
L 321.470683 -38.016 
L 322.655554 -38.016 
L 323.840425 -38.016 
L 325.025295 -38.016 
L 326.210166 -38.016 
L 327.395036 -38.016 
L 328.579907 -38.016 
L 329.764778 -38.016 
L 330.949648 -38.016 
L 332.134519 -38.016 
L 333.31939 -38.016 
L 334.50426 -38.016 
L 335.689131 -38.016 
L 336.874001 -38.016 
L 338.058872 -38.016 
L 339.243743 -38.016 
L 340.428613 -38.016 
L 341.613484 -38.016 
L 342.798354 -38.016 
L 343.983225 -38.016 
L 345.168096 -38.016 
L 346.352966 -38.016 
L 347.537837 -38.016 
L 348.722707 -38.016 
L 349.907578 -38.016 
L 351.092449 -38.016 
L 352.277319 -38.016 
L 353.46219 -38.016 
L 354.64706 -38.016 
L 355.831931 -38.016 
L 357.016802 -38.016 
L 358.201672 -38.016 
L 359.386543 -38.016 
L 360.571413 -38.016 
L 361.756284 -38.016 
L 362.941155 -38.016 
L 364.126025 -38.016 
L 365.310896 -38.016 
L 366.495766 -38.016 
L 367.680637 -38.016 
L 368.865508 -38.016 
L 370.050378 -38.016 
L 371.235249 -38.016 
L 372.420119 -38.016 
L 373.60499 -38.016 
L 374.789861 -38.016 
L 375.974731 -38.016 
L 377.159602 -38.016 
L 378.344472 -38.016 
L 379.529343 -38.016 
L 380.714214 -38.016 
L 381.899084 -38.016 
L 383.083955 -38.016 
L 384.268825 -38.016 
L 385.453696 -38.016 
L 386.638567 -38.016 
L 387.823437 -38.016 
L 389.008308 -38.016 
L 390.193179 -38.016 
L 391.378049 -38.016 
L 392.56292 -38.016 
L 393.74779 -38.016 
L 394.932661 -38.016 
L 396.117532 -38.016 
L 397.302402 -38.016 
L 398.487273 -38.016 
L 398.487273 -38.053686 
L 398.487273 -38.053686 
L 397.302402 -38.016 
L 396.117532 -38.016 
L 394.932661 -38.016 
L 393.74779 -38.016 
L 392.56292 -38.016 
L 391.378049 -38.016 
L 390.193179 -38.016 
L 389.008308 -38.016 
L 387.823437 -38.016 
L 386.638567 -38.016 
L 385.453696 -38.016 
L 384.268825 -38.016 
L 383.083955 -38.053686 
L 381.899084 -38.053686 
L 380.714214 -38.016 
L 379.529343 -38.016 
L 378.344472 -38.053686 
L 377.159602 -38.016 
L 375.974731 -38.053686 
L 374.789861 -38.016 
L 373.60499 -38.053686 
L 372.420119 -38.016 
L 371.235249 -38.016 
L 370.050378 -38.016 
L 368.865508 -38.016 
L 367.680637 -38.016 
L 366.495766 -38.016 
L 365.310896 -38.016 
L 364.126025 -38.016 
L 362.941155 -38.129059 
L 361.756284 -38.016 
L 360.571413 -38.053686 
L 359.386543 -38.016 
L 358.201672 -38.053686 
L 357.016802 -38.053686 
L 355.831931 -38.016 
L 354.64706 -38.016 
L 353.46219 -38.053686 
L 352.277319 -38.053686 
L 351.092449 -38.129059 
L 349.907578 -38.053686 
L 348.722707 -38.053686 
L 347.537837 -38.053686 
L 346.352966 -38.053686 
L 345.168096 -38.091372 
L 343.983225 -38.053686 
L 342.798354 -38.091372 
L 341.613484 -38.016 
L 340.428613 -38.053686 
L 339.243743 -38.053686 
L 338.058872 -38.053686 
L 336.874001 -38.091372 
L 335.689131 -38.091372 
L 334.50426 -38.053686 
L 333.31939 -38.129059 
L 332.134519 -38.129059 
L 330.949648 -38.091372 
L 329.764778 -38.053686 
L 328.579907 -38.016 
L 327.395036 -38.091372 
L 326.210166 -38.091372 
L 325.025295 -38.016 
L 323.840425 -38.016 
L 322.655554 -38.091372 
L 321.470683 -38.053686 
L 320.285813 -38.129059 
L 319.100942 -38.053686 
L 317.916072 -38.166745 
L 316.731201 -38.166745 
L 315.54633 -38.166745 
L 314.36146 -38.242117 
L 313.176589 -38.129059 
L 311.991719 -38.204431 
L 310.806848 -38.204431 
L 309.621977 -38.204431 
L 308.437107 -38.053686 
L 307.252236 -38.279804 
L 306.067366 -38.129059 
L 304.882495 -38.053686 
L 303.697624 -38.242117 
L 302.512754 -38.204431 
L 301.327883 -38.204431 
L 300.143013 -38.430549 
L 298.958142 -38.242117 
L 297.773271 -38.166745 
L 296.588401 -38.430549 
L 295.40353 -38.129059 
L 294.21866 -38.355176 
L 293.033789 -38.31749 
L 291.848918 -38.166745 
L 290.664048 -38.31749 
L 289.479177 -38.430549 
L 288.294307 -38.355176 
L 287.109436 -38.430549 
L 285.924565 -38.355176 
L 284.739695 -38.543607 
L 283.554824 -38.543607 
L 282.369954 -38.505921 
L 281.185083 -38.656666 
L 280.000212 -38.392862 
L 278.815342 -38.581294 
L 277.630471 -38.694352 
L 276.445601 -38.430549 
L 275.26073 -38.732039 
L 274.075859 -38.958156 
L 272.890989 -38.807411 
L 271.706118 -38.769725 
L 270.521248 -38.807411 
L 269.336377 -38.694352 
L 268.151506 -39.146587 
L 266.966636 -39.033529 
L 265.781765 -38.958156 
L 264.596894 -38.845097 
L 263.412024 -39.22196 
L 262.227153 -39.636509 
L 261.042283 -39.52345 
L 259.857412 -39.297332 
L 258.672541 -39.22196 
L 257.487671 -39.52345 
L 256.3028 -39.749567 
L 255.11793 -39.749567 
L 253.933059 -39.636509 
L 252.748188 -39.937999 
L 251.563318 -39.787254 
L 250.378447 -40.201802 
L 249.193577 -40.277175 
L 248.008706 -39.82494 
L 246.823835 -40.390233 
L 245.638965 -40.42792 
L 244.454094 -40.390233 
L 243.269224 -41.106272 
L 242.084353 -40.767096 
L 240.899482 -40.880155 
L 239.714612 -40.842468 
L 238.529741 -40.616351 
L 237.344871 -41.709252 
L 236.16 -41.445448 
L 234.975129 -41.746938 
L 233.790259 -41.63388 
L 232.605388 -41.407762 
L 231.420518 -41.63388 
L 230.235647 -42.048428 
L 229.050776 -42.199173 
L 227.865906 -42.048428 
L 226.681035 -43.405133 
L 225.496165 -42.236859 
L 224.311294 -43.103643 
L 223.126423 -43.179016 
L 221.941553 -43.292074 
L 220.756682 -44.950269 
L 219.571812 -43.668937 
L 218.386941 -44.045799 
L 217.20207 -44.724152 
L 216.0172 -44.460348 
L 214.832329 -45.628622 
L 213.647459 -46.005484 
L 212.462588 -45.364818 
L 211.277717 -45.515563 
L 210.092847 -45.666308 
L 208.907976 -45.817053 
L 207.723106 -46.306974 
L 206.538235 -46.872268 
L 205.353364 -47.776738 
L 204.168494 -47.286816 
L 202.983623 -47.701365 
L 201.798752 -48.078228 
L 200.613882 -47.814424 
L 199.429011 -48.379717 
L 198.244141 -49.020384 
L 197.05927 -49.698736 
L 195.874399 -49.623364 
L 194.689529 -50.791637 
L 193.504658 -50.414775 
L 192.319788 -51.017755 
L 191.134917 -50.942382 
L 189.950046 -52.449832 
L 188.765176 -53.919596 
L 187.580305 -53.768851 
L 186.395435 -53.806537 
L 185.210564 -54.899438 
L 184.025693 -54.786379 
L 182.840823 -56.48226 
L 181.655952 -57.08524 
L 180.471082 -56.708378 
L 179.286211 -57.801279 
L 178.10134 -57.198299 
L 176.91647 -58.2912 
L 175.731599 -60.853865 
L 174.546729 -60.326257 
L 173.361858 -60.590061 
L 172.176987 -64.848607 
L 170.992117 -64.773234 
L 169.807246 -61.758335 
L 168.622376 -65.602332 
L 167.437505 -66.808291 
L 166.252634 -68.315741 
L 165.067764 -69.182525 
L 163.882893 -47.098385 
L 162.698023 -38.016 
L 161.513152 -38.016 
L 160.328281 -38.016 
L 159.143411 -38.016 
L 157.95854 -38.016 
L 156.77367 -38.016 
L 155.588799 -38.016 
L 154.403928 -38.016 
L 153.219058 -38.016 
L 152.034187 -38.016 
L 150.849317 -38.016 
L 149.664446 -38.016 
L 148.479575 -38.016 
L 147.294705 -38.016 
L 146.109834 -38.016 
L 144.924964 -38.016 
L 143.740093 -38.016 
L 142.555222 -38.016 
L 141.370352 -38.016 
L 140.185481 -38.016 
L 139.00061 -38.016 
L 137.81574 -38.016 
L 136.630869 -38.016 
L 135.445999 -38.016 
L 134.261128 -38.016 
L 133.076257 -38.016 
L 131.891387 -38.016 
L 130.706516 -38.016 
L 129.521646 -38.016 
L 128.336775 -38.016 
L 127.151904 -38.016 
L 125.967034 -38.016 
L 124.782163 -38.016 
L 123.597293 -38.016 
L 122.412422 -38.016 
L 121.227551 -38.016 
L 120.042681 -38.016 
L 118.85781 -38.016 
L 117.67294 -38.016 
L 116.488069 -38.016 
L 115.303198 -38.016 
L 114.118328 -38.016 
L 112.933457 -38.016 
L 111.748587 -38.016 
L 110.563716 -38.016 
L 109.378845 -38.016 
L 108.193975 -38.016 
L 107.009104 -38.016 
L 105.824234 -38.016 
L 104.639363 -38.016 
L 103.454492 -38.016 
L 102.269622 -38.016 
L 101.084751 -38.016 
L 99.899881 -38.016 
L 98.71501 -38.016 
L 97.530139 -38.016 
L 96.345269 -38.016 
L 95.160398 -38.016 
L 93.975528 -38.016 
L 92.790657 -38.016 
L 91.605786 -38.016 
L 90.420916 -38.016 
L 89.236045 -38.016 
L 88.051175 -38.016 
L 86.866304 -38.016 
L 85.681433 -38.016 
L 84.496563 -38.016 
L 83.311692 -38.016 
L 82.126821 -38.016 
L 80.941951 -38.016 
L 79.75708 -38.016 
L 78.57221 -38.016 
L 77.387339 -38.016 
L 76.202468 -38.016 
L 75.017598 -38.016 
L 73.832727 -38.016 
z
" style="stroke: #1f77b4"/>
    </defs>
    <g clip-path="url(#p408d558991)">
     <use xlink:href="#m0a962adcdf" x="0" y="345.6" style="fill: #1f77b4; fill-opacity: 0.25; stroke: #1f77b4"/>
    </g>
   </g>
   <g id="matplotlib.axis_1">
    <g id="xtick_1">
     <g id="line2d_1">
      <defs>
       <path id="m89855dd1c2" d="M 0 0 
L 0 3.5 
" style="stroke: #000000; stroke-width: 0.8"/>
      </defs>
      <g>
       <use xlink:href="#m89855dd1c2" x="89.803447" y="307.584" style="stroke: #000000; stroke-width: 0.8"/>
      </g>
     </g>
     <g id="text_1">
      <!-- $\mathdefault{10^{-2}}$ -->
      <g transform="translate(78.053447 322.182437) scale(0.1 -0.1)">
       <defs>
        <path id="DejaVuSans-31" d="M 794 531 
L 1825 531 
L 1825 4091 
L 703 3866 
L 703 4441 
L 1819 4666 
L 2450 4666 
L 2450 531 
L 3481 531 
L 3481 0 
L 794 0 
L 794 531 
z
" transform="scale(0.015625)"/>
        <path id="DejaVuSans-30" d="M 2034 4250 
Q 1547 4250 1301 3770 
Q 1056 3291 1056 2328 
Q 1056 1369 1301 889 
Q 1547 409 2034 409 
Q 2525 409 2770 889 
Q 3016 1369 3016 2328 
Q 3016 3291 2770 3770 
Q 2525 4250 2034 4250 
z
M 2034 4750 
Q 2819 4750 3233 4129 
Q 3647 3509 3647 2328 
Q 3647 1150 3233 529 
Q 2819 -91 2034 -91 
Q 1250 -91 836 529 
Q 422 1150 422 2328 
Q 422 3509 836 4129 
Q 1250 4750 2034 4750 
z
" transform="scale(0.015625)"/>
        <path id="DejaVuSans-2212" d="M 678 2272 
L 4684 2272 
L 4684 1741 
L 678 1741 
L 678 2272 
z
" transform="scale(0.015625)"/>
        <path id="DejaVuSans-32" d="M 1228 531 
L 3431 531 
L 3431 0 
L 469 0 
L 469 531 
Q 828 903 1448 1529 
Q 2069 2156 2228 2338 
Q 2531 2678 2651 2914 
Q 2772 3150 2772 3378 
Q 2772 3750 2511 3984 
Q 2250 4219 1831 4219 
Q 1534 4219 1204 4116 
Q 875 4013 500 3803 
L 500 4441 
Q 881 4594 1212 4672 
Q 1544 4750 1819 4750 
Q 2544 4750 2975 4387 
Q 3406 4025 3406 3419 
Q 3406 3131 3298 2873 
Q 3191 2616 2906 2266 
Q 2828 2175 2409 1742 
Q 1991 1309 1228 531 
z
" transform="scale(0.015625)"/>
       </defs>
       <use xlink:href="#DejaVuSans-31" transform="translate(0 0.765625)"/>
       <use xlink:href="#DejaVuSans-30" transform="translate(63.623047 0.765625)"/>
       <use xlink:href="#DejaVuSans-2212" transform="translate(128.203125 39.046875) scale(0.7)"/>
       <use xlink:href="#DejaVuSans-32" transform="translate(186.855469 39.046875) scale(0.7)"/>
      </g>
     </g>
    </g>
    <g id="xtick_2">
     <g id="line2d_2">
      <g>
       <use xlink:href="#m89855dd1c2" x="126.95706" y="307.584" style="stroke: #000000; stroke-width: 0.8"/>
      </g>
     </g>
     <g id="text_2">
      <!-- $\mathdefault{10^{-1}}$ -->
      <g transform="translate(115.20706 322.182437) scale(0.1 -0.1)">
       <use xlink:href="#DejaVuSans-31" transform="translate(0 0.684375)"/>
       <use xlink:href="#DejaVuSans-30" transform="translate(63.623047 0.684375)"/>
       <use xlink:href="#DejaVuSans-2212" transform="translate(128.203125 38.965625) scale(0.7)"/>
       <use xlink:href="#DejaVuSans-31" transform="translate(186.855469 38.965625) scale(0.7)"/>
      </g>
     </g>
    </g>
    <g id="xtick_3">
     <g id="line2d_3">
      <g>
       <use xlink:href="#m89855dd1c2" x="164.110674" y="307.584" style="stroke: #000000; stroke-width: 0.8"/>
      </g>
     </g>
     <g id="text_3">
      <!-- $\mathdefault{10^{0}}$ -->
      <g transform="translate(155.310674 322.182437) scale(0.1 -0.1)">
       <use xlink:href="#DejaVuSans-31" transform="translate(0 0.765625)"/>
       <use xlink:href="#DejaVuSans-30" transform="translate(63.623047 0.765625)"/>
       <use xlink:href="#DejaVuSans-30" transform="translate(128.203125 39.046875) scale(0.7)"/>
      </g>
     </g>
    </g>
    <g id="xtick_4">
     <g id="line2d_4">
      <g>
       <use xlink:href="#m89855dd1c2" x="201.264287" y="307.584" style="stroke: #000000; stroke-width: 0.8"/>
      </g>
     </g>
     <g id="text_4">
      <!-- $\mathdefault{10^{1}}$ -->
      <g transform="translate(192.464287 322.182437) scale(0.1 -0.1)">
       <use xlink:href="#DejaVuSans-31" transform="translate(0 0.684375)"/>
       <use xlink:href="#DejaVuSans-30" transform="translate(63.623047 0.684375)"/>
       <use xlink:href="#DejaVuSans-31" transform="translate(128.203125 38.965625) scale(0.7)"/>
      </g>
     </g>
    </g>
    <g id="xtick_5">
     <g id="line2d_5">
      <g>
       <use xlink:href="#m89855dd1c2" x="238.417901" y="307.584" style="stroke: #000000; stroke-width: 0.8"/>
      </g>
     </g>
     <g id="text_5">
      <!-- $\mathdefault{10^{2}}$ -->
      <g transform="translate(229.617901 322.182437) scale(0.1 -0.1)">
       <use xlink:href="#DejaVuSans-31" transform="translate(0 0.765625)"/>
       <use xlink:href="#DejaVuSans-30" transform="translate(63.623047 0.765625)"/>
       <use xlink:href="#DejaVuSans-32" transform="translate(128.203125 39.046875) scale(0.7)"/>
      </g>
     </g>
    </g>
    <g id="xtick_6">
     <g id="line2d_6">
      <g>
       <use xlink:href="#m89855dd1c2" x="275.571514" y="307.584" style="stroke: #000000; stroke-width: 0.8"/>
      </g>
     </g>
     <g id="text_6">
      <!-- $\mathdefault{10^{3}}$ -->
      <g transform="translate(266.771514 322.182437) scale(0.1 -0.1)">
       <defs>
        <path id="DejaVuSans-33" d="M 2597 2516 
Q 3050 2419 3304 2112 
Q 3559 1806 3559 1356 
Q 3559 666 3084 287 
Q 2609 -91 1734 -91 
Q 1441 -91 1130 -33 
Q 819 25 488 141 
L 488 750 
Q 750 597 1062 519 
Q 1375 441 1716 441 
Q 2309 441 2620 675 
Q 2931 909 2931 1356 
Q 2931 1769 2642 2001 
Q 2353 2234 1838 2234 
L 1294 2234 
L 1294 2753 
L 1863 2753 
Q 2328 2753 2575 2939 
Q 2822 3125 2822 3475 
Q 2822 3834 2567 4026 
Q 2313 4219 1838 4219 
Q 1578 4219 1281 4162 
Q 984 4106 628 3988 
L 628 4550 
Q 988 4650 1302 4700 
Q 1616 4750 1894 4750 
Q 2613 4750 3031 4423 
Q 3450 4097 3450 3541 
Q 3450 3153 3228 2886 
Q 3006 2619 2597 2516 
z
" transform="scale(0.015625)"/>
       </defs>
       <use xlink:href="#DejaVuSans-31" transform="translate(0 0.765625)"/>
       <use xlink:href="#DejaVuSans-30" transform="translate(63.623047 0.765625)"/>
       <use xlink:href="#DejaVuSans-33" transform="translate(128.203125 39.046875) scale(0.7)"/>
      </g>
     </g>
    </g>
    <g id="xtick_7">
     <g id="line2d_7">
      <g>
       <use xlink:href="#m89855dd1c2" x="312.725128" y="307.584" style="stroke: #000000; stroke-width: 0.8"/>
      </g>
     </g>
     <g id="text_7">
      <!-- $\mathdefault{10^{4}}$ -->
      <g transform="translate(303.925128 322.182437) scale(0.1 -0.1)">
       <defs>
        <path id="DejaVuSans-34" d="M 2419 4116 
L 825 1625 
L 2419 1625 
L 2419 4116 
z
M 2253 4666 
L 3047 4666 
L 3047 1625 
L 3713 1625 
L 3713 1100 
L 3047 1100 
L 3047 0 
L 2419 0 
L 2419 1100 
L 313 1100 
L 313 1709 
L 2253 4666 
z
" transform="scale(0.015625)"/>
       </defs>
       <use xlink:href="#DejaVuSans-31" transform="translate(0 0.684375)"/>
       <use xlink:href="#DejaVuSans-30" transform="translate(63.623047 0.684375)"/>
       <use xlink:href="#DejaVuSans-34" transform="translate(128.203125 38.965625) scale(0.7)"/>
      </g>
     </g>
    </g>
    <g id="xtick_8">
     <g id="line2d_8">
      <g>
       <use xlink:href="#m89855dd1c2" x="349.878741" y="307.584" style="stroke: #000000; stroke-width: 0.8"/>
      </g>
     </g>
     <g id="text_8">
      <!-- $\mathdefault{10^{5}}$ -->
      <g transform="translate(341.078741 322.182437) scale(0.1 -0.1)">
       <defs>
        <path id="DejaVuSans-35" d="M 691 4666 
L 3169 4666 
L 3169 4134 
L 1269 4134 
L 1269 2991 
Q 1406 3038 1543 3061 
Q 1681 3084 1819 3084 
Q 2600 3084 3056 2656 
Q 3513 2228 3513 1497 
Q 3513 744 3044 326 
Q 2575 -91 1722 -91 
Q 1428 -91 1123 -41 
Q 819 9 494 109 
L 494 744 
Q 775 591 1075 516 
Q 1375 441 1709 441 
Q 2250 441 2565 725 
Q 2881 1009 2881 1497 
Q 2881 1984 2565 2268 
Q 2250 2553 1709 2553 
Q 1456 2553 1204 2497 
Q 953 2441 691 2322 
L 691 4666 
z
" transform="scale(0.015625)"/>
       </defs>
       <use xlink:href="#DejaVuSans-31" transform="translate(0 0.684375)"/>
       <use xlink:href="#DejaVuSans-30" transform="translate(63.623047 0.684375)"/>
       <use xlink:href="#DejaVuSans-35" transform="translate(128.203125 38.965625) scale(0.7)"/>
      </g>
     </g>
    </g>
    <g id="xtick_9">
     <g id="line2d_9">
      <g>
       <use xlink:href="#m89855dd1c2" x="387.032355" y="307.584" style="stroke: #000000; stroke-width: 0.8"/>
      </g>
     </g>
     <g id="text_9">
      <!-- $\mathdefault{10^{6}}$ -->
      <g transform="translate(378.232355 322.182437) scale(0.1 -0.1)">
       <defs>
        <path id="DejaVuSans-36" d="M 2113 2584 
Q 1688 2584 1439 2293 
Q 1191 2003 1191 1497 
Q 1191 994 1439 701 
Q 1688 409 2113 409 
Q 2538 409 2786 701 
Q 3034 994 3034 1497 
Q 3034 2003 2786 2293 
Q 2538 2584 2113 2584 
z
M 3366 4563 
L 3366 3988 
Q 3128 4100 2886 4159 
Q 2644 4219 2406 4219 
Q 1781 4219 1451 3797 
Q 1122 3375 1075 2522 
Q 1259 2794 1537 2939 
Q 1816 3084 2150 3084 
Q 2853 3084 3261 2657 
Q 3669 2231 3669 1497 
Q 3669 778 3244 343 
Q 2819 -91 2113 -91 
Q 1303 -91 875 529 
Q 447 1150 447 2328 
Q 447 3434 972 4092 
Q 1497 4750 2381 4750 
Q 2619 4750 2861 4703 
Q 3103 4656 3366 4563 
z
" transform="scale(0.015625)"/>
       </defs>
       <use xlink:href="#DejaVuSans-31" transform="translate(0 0.765625)"/>
       <use xlink:href="#DejaVuSans-30" transform="translate(63.623047 0.765625)"/>
       <use xlink:href="#DejaVuSans-36" transform="translate(128.203125 39.046875) scale(0.7)"/>
      </g>
     </g>
    </g>
    <g id="xtick_10">
     <g id="line2d_10">
      <defs>
       <path id="m0231c8c760" d="M 0 0 
L 0 2 
" style="stroke: #000000; stroke-width: 0.6"/>
      </defs>
      <g>
       <use xlink:href="#m0231c8c760" x="63.834186" y="307.584" style="stroke: #000000; stroke-width: 0.6"/>
      </g>
     </g>
    </g>
    <g id="xtick_11">
     <g id="line2d_11">
      <g>
       <use xlink:href="#m0231c8c760" x="70.376612" y="307.584" style="stroke: #000000; stroke-width: 0.6"/>
      </g>
     </g>
    </g>
    <g id="xtick_12">
     <g id="line2d_12">
      <g>
       <use xlink:href="#m0231c8c760" x="75.018538" y="307.584" style="stroke: #000000; stroke-width: 0.6"/>
      </g>
     </g>
    </g>
    <g id="xtick_13">
     <g id="line2d_13">
      <g>
       <use xlink:href="#m0231c8c760" x="78.619095" y="307.584" style="stroke: #000000; stroke-width: 0.6"/>
      </g>
     </g>
    </g>
    <g id="xtick_14">
     <g id="line2d_14">
      <g>
       <use xlink:href="#m0231c8c760" x="81.560964" y="307.584" style="stroke: #000000; stroke-width: 0.6"/>
      </g>
     </g>
    </g>
    <g id="xtick_15">
     <g id="line2d_15">
      <g>
       <use xlink:href="#m0231c8c760" x="84.048279" y="307.584" style="stroke: #000000; stroke-width: 0.6"/>
      </g>
     </g>
    </g>
    <g id="xtick_16">
     <g id="line2d_16">
      <g>
       <use xlink:href="#m0231c8c760" x="86.20289" y="307.584" style="stroke: #000000; stroke-width: 0.6"/>
      </g>
     </g>
    </g>
    <g id="xtick_17">
     <g id="line2d_17">
      <g>
       <use xlink:href="#m0231c8c760" x="88.103391" y="307.584" style="stroke: #000000; stroke-width: 0.6"/>
      </g>
     </g>
    </g>
    <g id="xtick_18">
     <g id="line2d_18">
      <g>
       <use xlink:href="#m0231c8c760" x="100.987799" y="307.584" style="stroke: #000000; stroke-width: 0.6"/>
      </g>
     </g>
    </g>
    <g id="xtick_19">
     <g id="line2d_19">
      <g>
       <use xlink:href="#m0231c8c760" x="107.530226" y="307.584" style="stroke: #000000; stroke-width: 0.6"/>
      </g>
     </g>
    </g>
    <g id="xtick_20">
     <g id="line2d_20">
      <g>
       <use xlink:href="#m0231c8c760" x="112.172151" y="307.584" style="stroke: #000000; stroke-width: 0.6"/>
      </g>
     </g>
    </g>
    <g id="xtick_21">
     <g id="line2d_21">
      <g>
       <use xlink:href="#m0231c8c760" x="115.772708" y="307.584" style="stroke: #000000; stroke-width: 0.6"/>
      </g>
     </g>
    </g>
    <g id="xtick_22">
     <g id="line2d_22">
      <g>
       <use xlink:href="#m0231c8c760" x="118.714578" y="307.584" style="stroke: #000000; stroke-width: 0.6"/>
      </g>
     </g>
    </g>
    <g id="xtick_23">
     <g id="line2d_23">
      <g>
       <use xlink:href="#m0231c8c760" x="121.201893" y="307.584" style="stroke: #000000; stroke-width: 0.6"/>
      </g>
     </g>
    </g>
    <g id="xtick_24">
     <g id="line2d_24">
      <g>
       <use xlink:href="#m0231c8c760" x="123.356503" y="307.584" style="stroke: #000000; stroke-width: 0.6"/>
      </g>
     </g>
    </g>
    <g id="xtick_25">
     <g id="line2d_25">
      <g>
       <use xlink:href="#m0231c8c760" x="125.257004" y="307.584" style="stroke: #000000; stroke-width: 0.6"/>
      </g>
     </g>
    </g>
    <g id="xtick_26">
     <g id="line2d_26">
      <g>
       <use xlink:href="#m0231c8c760" x="138.141413" y="307.584" style="stroke: #000000; stroke-width: 0.6"/>
      </g>
     </g>
    </g>
    <g id="xtick_27">
     <g id="line2d_27">
      <g>
       <use xlink:href="#m0231c8c760" x="144.683839" y="307.584" style="stroke: #000000; stroke-width: 0.6"/>
      </g>
     </g>
    </g>
    <g id="xtick_28">
     <g id="line2d_28">
      <g>
       <use xlink:href="#m0231c8c760" x="149.325765" y="307.584" style="stroke: #000000; stroke-width: 0.6"/>
      </g>
     </g>
    </g>
    <g id="xtick_29">
     <g id="line2d_29">
      <g>
       <use xlink:href="#m0231c8c760" x="152.926322" y="307.584" style="stroke: #000000; stroke-width: 0.6"/>
      </g>
     </g>
    </g>
    <g id="xtick_30">
     <g id="line2d_30">
      <g>
       <use xlink:href="#m0231c8c760" x="155.868191" y="307.584" style="stroke: #000000; stroke-width: 0.6"/>
      </g>
     </g>
    </g>
    <g id="xtick_31">
     <g id="line2d_31">
      <g>
       <use xlink:href="#m0231c8c760" x="158.355506" y="307.584" style="stroke: #000000; stroke-width: 0.6"/>
      </g>
     </g>
    </g>
    <g id="xtick_32">
     <g id="line2d_32">
      <g>
       <use xlink:href="#m0231c8c760" x="160.510117" y="307.584" style="stroke: #000000; stroke-width: 0.6"/>
      </g>
     </g>
    </g>
    <g id="xtick_33">
     <g id="line2d_33">
      <g>
       <use xlink:href="#m0231c8c760" x="162.410618" y="307.584" style="stroke: #000000; stroke-width: 0.6"/>
      </g>
     </g>
    </g>
    <g id="xtick_34">
     <g id="line2d_34">
      <g>
       <use xlink:href="#m0231c8c760" x="175.295026" y="307.584" style="stroke: #000000; stroke-width: 0.6"/>
      </g>
     </g>
    </g>
    <g id="xtick_35">
     <g id="line2d_35">
      <g>
       <use xlink:href="#m0231c8c760" x="181.837453" y="307.584" style="stroke: #000000; stroke-width: 0.6"/>
      </g>
     </g>
    </g>
    <g id="xtick_36">
     <g id="line2d_36">
      <g>
       <use xlink:href="#m0231c8c760" x="186.479378" y="307.584" style="stroke: #000000; stroke-width: 0.6"/>
      </g>
     </g>
    </g>
    <g id="xtick_37">
     <g id="line2d_37">
      <g>
       <use xlink:href="#m0231c8c760" x="190.079935" y="307.584" style="stroke: #000000; stroke-width: 0.6"/>
      </g>
     </g>
    </g>
    <g id="xtick_38">
     <g id="line2d_38">
      <g>
       <use xlink:href="#m0231c8c760" x="193.021805" y="307.584" style="stroke: #000000; stroke-width: 0.6"/>
      </g>
     </g>
    </g>
    <g id="xtick_39">
     <g id="line2d_39">
      <g>
       <use xlink:href="#m0231c8c760" x="195.50912" y="307.584" style="stroke: #000000; stroke-width: 0.6"/>
      </g>
     </g>
    </g>
    <g id="xtick_40">
     <g id="line2d_40">
      <g>
       <use xlink:href="#m0231c8c760" x="197.66373" y="307.584" style="stroke: #000000; stroke-width: 0.6"/>
      </g>
     </g>
    </g>
    <g id="xtick_41">
     <g id="line2d_41">
      <g>
       <use xlink:href="#m0231c8c760" x="199.564231" y="307.584" style="stroke: #000000; stroke-width: 0.6"/>
      </g>
     </g>
    </g>
    <g id="xtick_42">
     <g id="line2d_42">
      <g>
       <use xlink:href="#m0231c8c760" x="212.448639" y="307.584" style="stroke: #000000; stroke-width: 0.6"/>
      </g>
     </g>
    </g>
    <g id="xtick_43">
     <g id="line2d_43">
      <g>
       <use xlink:href="#m0231c8c760" x="218.991066" y="307.584" style="stroke: #000000; stroke-width: 0.6"/>
      </g>
     </g>
    </g>
    <g id="xtick_44">
     <g id="line2d_44">
      <g>
       <use xlink:href="#m0231c8c760" x="223.632992" y="307.584" style="stroke: #000000; stroke-width: 0.6"/>
      </g>
     </g>
    </g>
    <g id="xtick_45">
     <g id="line2d_45">
      <g>
       <use xlink:href="#m0231c8c760" x="227.233549" y="307.584" style="stroke: #000000; stroke-width: 0.6"/>
      </g>
     </g>
    </g>
    <g id="xtick_46">
     <g id="line2d_46">
      <g>
       <use xlink:href="#m0231c8c760" x="230.175418" y="307.584" style="stroke: #000000; stroke-width: 0.6"/>
      </g>
     </g>
    </g>
    <g id="xtick_47">
     <g id="line2d_47">
      <g>
       <use xlink:href="#m0231c8c760" x="232.662733" y="307.584" style="stroke: #000000; stroke-width: 0.6"/>
      </g>
     </g>
    </g>
    <g id="xtick_48">
     <g id="line2d_48">
      <g>
       <use xlink:href="#m0231c8c760" x="234.817344" y="307.584" style="stroke: #000000; stroke-width: 0.6"/>
      </g>
     </g>
    </g>
    <g id="xtick_49">
     <g id="line2d_49">
      <g>
       <use xlink:href="#m0231c8c760" x="236.717845" y="307.584" style="stroke: #000000; stroke-width: 0.6"/>
      </g>
     </g>
    </g>
    <g id="xtick_50">
     <g id="line2d_50">
      <g>
       <use xlink:href="#m0231c8c760" x="249.602253" y="307.584" style="stroke: #000000; stroke-width: 0.6"/>
      </g>
     </g>
    </g>
    <g id="xtick_51">
     <g id="line2d_51">
      <g>
       <use xlink:href="#m0231c8c760" x="256.144679" y="307.584" style="stroke: #000000; stroke-width: 0.6"/>
      </g>
     </g>
    </g>
    <g id="xtick_52">
     <g id="line2d_52">
      <g>
       <use xlink:href="#m0231c8c760" x="260.786605" y="307.584" style="stroke: #000000; stroke-width: 0.6"/>
      </g>
     </g>
    </g>
    <g id="xtick_53">
     <g id="line2d_53">
      <g>
       <use xlink:href="#m0231c8c760" x="264.387162" y="307.584" style="stroke: #000000; stroke-width: 0.6"/>
      </g>
     </g>
    </g>
    <g id="xtick_54">
     <g id="line2d_54">
      <g>
       <use xlink:href="#m0231c8c760" x="267.329032" y="307.584" style="stroke: #000000; stroke-width: 0.6"/>
      </g>
     </g>
    </g>
    <g id="xtick_55">
     <g id="line2d_55">
      <g>
       <use xlink:href="#m0231c8c760" x="269.816347" y="307.584" style="stroke: #000000; stroke-width: 0.6"/>
      </g>
     </g>
    </g>
    <g id="xtick_56">
     <g id="line2d_56">
      <g>
       <use xlink:href="#m0231c8c760" x="271.970957" y="307.584" style="stroke: #000000; stroke-width: 0.6"/>
      </g>
     </g>
    </g>
    <g id="xtick_57">
     <g id="line2d_57">
      <g>
       <use xlink:href="#m0231c8c760" x="273.871458" y="307.584" style="stroke: #000000; stroke-width: 0.6"/>
      </g>
     </g>
    </g>
    <g id="xtick_58">
     <g id="line2d_58">
      <g>
       <use xlink:href="#m0231c8c760" x="286.755866" y="307.584" style="stroke: #000000; stroke-width: 0.6"/>
      </g>
     </g>
    </g>
    <g id="xtick_59">
     <g id="line2d_59">
      <g>
       <use xlink:href="#m0231c8c760" x="293.298293" y="307.584" style="stroke: #000000; stroke-width: 0.6"/>
      </g>
     </g>
    </g>
    <g id="xtick_60">
     <g id="line2d_60">
      <g>
       <use xlink:href="#m0231c8c760" x="297.940218" y="307.584" style="stroke: #000000; stroke-width: 0.6"/>
      </g>
     </g>
    </g>
    <g id="xtick_61">
     <g id="line2d_61">
      <g>
       <use xlink:href="#m0231c8c760" x="301.540776" y="307.584" style="stroke: #000000; stroke-width: 0.6"/>
      </g>
     </g>
    </g>
    <g id="xtick_62">
     <g id="line2d_62">
      <g>
       <use xlink:href="#m0231c8c760" x="304.482645" y="307.584" style="stroke: #000000; stroke-width: 0.6"/>
      </g>
     </g>
    </g>
    <g id="xtick_63">
     <g id="line2d_63">
      <g>
       <use xlink:href="#m0231c8c760" x="306.96996" y="307.584" style="stroke: #000000; stroke-width: 0.6"/>
      </g>
     </g>
    </g>
    <g id="xtick_64">
     <g id="line2d_64">
      <g>
       <use xlink:href="#m0231c8c760" x="309.124571" y="307.584" style="stroke: #000000; stroke-width: 0.6"/>
      </g>
     </g>
    </g>
    <g id="xtick_65">
     <g id="line2d_65">
      <g>
       <use xlink:href="#m0231c8c760" x="311.025072" y="307.584" style="stroke: #000000; stroke-width: 0.6"/>
      </g>
     </g>
    </g>
    <g id="xtick_66">
     <g id="line2d_66">
      <g>
       <use xlink:href="#m0231c8c760" x="323.90948" y="307.584" style="stroke: #000000; stroke-width: 0.6"/>
      </g>
     </g>
    </g>
    <g id="xtick_67">
     <g id="line2d_67">
      <g>
       <use xlink:href="#m0231c8c760" x="330.451906" y="307.584" style="stroke: #000000; stroke-width: 0.6"/>
      </g>
     </g>
    </g>
    <g id="xtick_68">
     <g id="line2d_68">
      <g>
       <use xlink:href="#m0231c8c760" x="335.093832" y="307.584" style="stroke: #000000; stroke-width: 0.6"/>
      </g>
     </g>
    </g>
    <g id="xtick_69">
     <g id="line2d_69">
      <g>
       <use xlink:href="#m0231c8c760" x="338.694389" y="307.584" style="stroke: #000000; stroke-width: 0.6"/>
      </g>
     </g>
    </g>
    <g id="xtick_70">
     <g id="line2d_70">
      <g>
       <use xlink:href="#m0231c8c760" x="341.636258" y="307.584" style="stroke: #000000; stroke-width: 0.6"/>
      </g>
     </g>
    </g>
    <g id="xtick_71">
     <g id="line2d_71">
      <g>
       <use xlink:href="#m0231c8c760" x="344.123574" y="307.584" style="stroke: #000000; stroke-width: 0.6"/>
      </g>
     </g>
    </g>
    <g id="xtick_72">
     <g id="line2d_72">
      <g>
       <use xlink:href="#m0231c8c760" x="346.278184" y="307.584" style="stroke: #000000; stroke-width: 0.6"/>
      </g>
     </g>
    </g>
    <g id="xtick_73">
     <g id="line2d_73">
      <g>
       <use xlink:href="#m0231c8c760" x="348.178685" y="307.584" style="stroke: #000000; stroke-width: 0.6"/>
      </g>
     </g>
    </g>
    <g id="xtick_74">
     <g id="line2d_74">
      <g>
       <use xlink:href="#m0231c8c760" x="361.063093" y="307.584" style="stroke: #000000; stroke-width: 0.6"/>
      </g>
     </g>
    </g>
    <g id="xtick_75">
     <g id="line2d_75">
      <g>
       <use xlink:href="#m0231c8c760" x="367.60552" y="307.584" style="stroke: #000000; stroke-width: 0.6"/>
      </g>
     </g>
    </g>
    <g id="xtick_76">
     <g id="line2d_76">
      <g>
       <use xlink:href="#m0231c8c760" x="372.247445" y="307.584" style="stroke: #000000; stroke-width: 0.6"/>
      </g>
     </g>
    </g>
    <g id="xtick_77">
     <g id="line2d_77">
      <g>
       <use xlink:href="#m0231c8c760" x="375.848002" y="307.584" style="stroke: #000000; stroke-width: 0.6"/>
      </g>
     </g>
    </g>
    <g id="xtick_78">
     <g id="line2d_78">
      <g>
       <use xlink:href="#m0231c8c760" x="378.789872" y="307.584" style="stroke: #000000; stroke-width: 0.6"/>
      </g>
     </g>
    </g>
    <g id="xtick_79">
     <g id="line2d_79">
      <g>
       <use xlink:href="#m0231c8c760" x="381.277187" y="307.584" style="stroke: #000000; stroke-width: 0.6"/>
      </g>
     </g>
    </g>
    <g id="xtick_80">
     <g id="line2d_80">
      <g>
       <use xlink:href="#m0231c8c760" x="383.431797" y="307.584" style="stroke: #000000; stroke-width: 0.6"/>
      </g>
     </g>
    </g>
    <g id="xtick_81">
     <g id="line2d_81">
      <g>
       <use xlink:href="#m0231c8c760" x="385.332298" y="307.584" style="stroke: #000000; stroke-width: 0.6"/>
      </g>
     </g>
    </g>
    <g id="xtick_82">
     <g id="line2d_82">
      <g>
       <use xlink:href="#m0231c8c760" x="398.216707" y="307.584" style="stroke: #000000; stroke-width: 0.6"/>
      </g>
     </g>
    </g>
    <g id="xtick_83">
     <g id="line2d_83">
      <g>
       <use xlink:href="#m0231c8c760" x="404.759133" y="307.584" style="stroke: #000000; stroke-width: 0.6"/>
      </g>
     </g>
    </g>
    <g id="xtick_84">
     <g id="line2d_84">
      <g>
       <use xlink:href="#m0231c8c760" x="409.401059" y="307.584" style="stroke: #000000; stroke-width: 0.6"/>
      </g>
     </g>
    </g>
    <g id="xtick_85">
     <g id="line2d_85">
      <g>
       <use xlink:href="#m0231c8c760" x="413.001616" y="307.584" style="stroke: #000000; stroke-width: 0.6"/>
      </g>
     </g>
    </g>
    <g id="text_10">
     <!-- Island Area (km) -->
     <g transform="translate(192.930312 335.860562) scale(0.1 -0.1)">
      <defs>
       <path id="DejaVuSans-49" d="M 628 4666 
L 1259 4666 
L 1259 0 
L 628 0 
L 628 4666 
z
" transform="scale(0.015625)"/>
       <path id="DejaVuSans-73" d="M 2834 3397 
L 2834 2853 
Q 2591 2978 2328 3040 
Q 2066 3103 1784 3103 
Q 1356 3103 1142 2972 
Q 928 2841 928 2578 
Q 928 2378 1081 2264 
Q 1234 2150 1697 2047 
L 1894 2003 
Q 2506 1872 2764 1633 
Q 3022 1394 3022 966 
Q 3022 478 2636 193 
Q 2250 -91 1575 -91 
Q 1294 -91 989 -36 
Q 684 19 347 128 
L 347 722 
Q 666 556 975 473 
Q 1284 391 1588 391 
Q 1994 391 2212 530 
Q 2431 669 2431 922 
Q 2431 1156 2273 1281 
Q 2116 1406 1581 1522 
L 1381 1569 
Q 847 1681 609 1914 
Q 372 2147 372 2553 
Q 372 3047 722 3315 
Q 1072 3584 1716 3584 
Q 2034 3584 2315 3537 
Q 2597 3491 2834 3397 
z
" transform="scale(0.015625)"/>
       <path id="DejaVuSans-6c" d="M 603 4863 
L 1178 4863 
L 1178 0 
L 603 0 
L 603 4863 
z
" transform="scale(0.015625)"/>
       <path id="DejaVuSans-61" d="M 2194 1759 
Q 1497 1759 1228 1600 
Q 959 1441 959 1056 
Q 959 750 1161 570 
Q 1363 391 1709 391 
Q 2188 391 2477 730 
Q 2766 1069 2766 1631 
L 2766 1759 
L 2194 1759 
z
M 3341 1997 
L 3341 0 
L 2766 0 
L 2766 531 
Q 2569 213 2275 61 
Q 1981 -91 1556 -91 
Q 1019 -91 701 211 
Q 384 513 384 1019 
Q 384 1609 779 1909 
Q 1175 2209 1959 2209 
L 2766 2209 
L 2766 2266 
Q 2766 2663 2505 2880 
Q 2244 3097 1772 3097 
Q 1472 3097 1187 3025 
Q 903 2953 641 2809 
L 641 3341 
Q 956 3463 1253 3523 
Q 1550 3584 1831 3584 
Q 2591 3584 2966 3190 
Q 3341 2797 3341 1997 
z
" transform="scale(0.015625)"/>
       <path id="DejaVuSans-6e" d="M 3513 2113 
L 3513 0 
L 2938 0 
L 2938 2094 
Q 2938 2591 2744 2837 
Q 2550 3084 2163 3084 
Q 1697 3084 1428 2787 
Q 1159 2491 1159 1978 
L 1159 0 
L 581 0 
L 581 3500 
L 1159 3500 
L 1159 2956 
Q 1366 3272 1645 3428 
Q 1925 3584 2291 3584 
Q 2894 3584 3203 3211 
Q 3513 2838 3513 2113 
z
" transform="scale(0.015625)"/>
       <path id="DejaVuSans-64" d="M 2906 2969 
L 2906 4863 
L 3481 4863 
L 3481 0 
L 2906 0 
L 2906 525 
Q 2725 213 2448 61 
Q 2172 -91 1784 -91 
Q 1150 -91 751 415 
Q 353 922 353 1747 
Q 353 2572 751 3078 
Q 1150 3584 1784 3584 
Q 2172 3584 2448 3432 
Q 2725 3281 2906 2969 
z
M 947 1747 
Q 947 1113 1208 752 
Q 1469 391 1925 391 
Q 2381 391 2643 752 
Q 2906 1113 2906 1747 
Q 2906 2381 2643 2742 
Q 2381 3103 1925 3103 
Q 1469 3103 1208 2742 
Q 947 2381 947 1747 
z
" transform="scale(0.015625)"/>
       <path id="DejaVuSans-20" transform="scale(0.015625)"/>
       <path id="DejaVuSans-41" d="M 2188 4044 
L 1331 1722 
L 3047 1722 
L 2188 4044 
z
M 1831 4666 
L 2547 4666 
L 4325 0 
L 3669 0 
L 3244 1197 
L 1141 1197 
L 716 0 
L 50 0 
L 1831 4666 
z
" transform="scale(0.015625)"/>
       <path id="DejaVuSans-72" d="M 2631 2963 
Q 2534 3019 2420 3045 
Q 2306 3072 2169 3072 
Q 1681 3072 1420 2755 
Q 1159 2438 1159 1844 
L 1159 0 
L 581 0 
L 581 3500 
L 1159 3500 
L 1159 2956 
Q 1341 3275 1631 3429 
Q 1922 3584 2338 3584 
Q 2397 3584 2469 3576 
Q 2541 3569 2628 3553 
L 2631 2963 
z
" transform="scale(0.015625)"/>
       <path id="DejaVuSans-65" d="M 3597 1894 
L 3597 1613 
L 953 1613 
Q 991 1019 1311 708 
Q 1631 397 2203 397 
Q 2534 397 2845 478 
Q 3156 559 3463 722 
L 3463 178 
Q 3153 47 2828 -22 
Q 2503 -91 2169 -91 
Q 1331 -91 842 396 
Q 353 884 353 1716 
Q 353 2575 817 3079 
Q 1281 3584 2069 3584 
Q 2775 3584 3186 3129 
Q 3597 2675 3597 1894 
z
M 3022 2063 
Q 3016 2534 2758 2815 
Q 2500 3097 2075 3097 
Q 1594 3097 1305 2825 
Q 1016 2553 972 2059 
L 3022 2063 
z
" transform="scale(0.015625)"/>
       <path id="DejaVuSans-28" d="M 1984 4856 
Q 1566 4138 1362 3434 
Q 1159 2731 1159 2009 
Q 1159 1288 1364 580 
Q 1569 -128 1984 -844 
L 1484 -844 
Q 1016 -109 783 600 
Q 550 1309 550 2009 
Q 550 2706 781 3412 
Q 1013 4119 1484 4856 
L 1984 4856 
z
" transform="scale(0.015625)"/>
       <path id="DejaVuSans-6b" d="M 581 4863 
L 1159 4863 
L 1159 1991 
L 2875 3500 
L 3609 3500 
L 1753 1863 
L 3688 0 
L 2938 0 
L 1159 1709 
L 1159 0 
L 581 0 
L 581 4863 
z
" transform="scale(0.015625)"/>
       <path id="DejaVuSans-6d" d="M 3328 2828 
Q 3544 3216 3844 3400 
Q 4144 3584 4550 3584 
Q 5097 3584 5394 3201 
Q 5691 2819 5691 2113 
L 5691 0 
L 5113 0 
L 5113 2094 
Q 5113 2597 4934 2840 
Q 4756 3084 4391 3084 
Q 3944 3084 3684 2787 
Q 3425 2491 3425 1978 
L 3425 0 
L 2847 0 
L 2847 2094 
Q 2847 2600 2669 2842 
Q 2491 3084 2119 3084 
Q 1678 3084 1418 2786 
Q 1159 2488 1159 1978 
L 1159 0 
L 581 0 
L 581 3500 
L 1159 3500 
L 1159 2956 
Q 1356 3278 1631 3431 
Q 1906 3584 2284 3584 
Q 2666 3584 2933 3390 
Q 3200 3197 3328 2828 
z
" transform="scale(0.015625)"/>
       <path id="DejaVuSans-b2" d="M 838 2444 
L 2163 2444 
L 2163 2088 
L 294 2088 
L 294 2431 
Q 400 2528 597 2703 
Q 1672 3656 1672 3950 
Q 1672 4156 1509 4282 
Q 1347 4409 1081 4409 
Q 919 4409 728 4354 
Q 538 4300 313 4191 
L 313 4575 
Q 553 4663 761 4706 
Q 969 4750 1147 4750 
Q 1600 4750 1872 4544 
Q 2144 4338 2144 4000 
Q 2144 3566 1109 2678 
Q 934 2528 838 2444 
z
" transform="scale(0.015625)"/>
       <path id="DejaVuSans-29" d="M 513 4856 
L 1013 4856 
Q 1481 4119 1714 3412 
Q 1947 2706 1947 2009 
Q 1947 1309 1714 600 
Q 1481 -109 1013 -844 
L 513 -844 
Q 928 -128 1133 580 
Q 1338 1288 1338 2009 
Q 1338 2731 1133 3434 
Q 928 4138 513 4856 
z
" transform="scale(0.015625)"/>
      </defs>
      <use xlink:href="#DejaVuSans-49"/>
      <use xlink:href="#DejaVuSans-73" x="29.492188"/>
      <use xlink:href="#DejaVuSans-6c" x="81.591797"/>
      <use xlink:href="#DejaVuSans-61" x="109.375"/>
      <use xlink:href="#DejaVuSans-6e" x="170.654297"/>
      <use xlink:href="#DejaVuSans-64" x="234.033203"/>
      <use xlink:href="#DejaVuSans-20" x="297.509766"/>
      <use xlink:href="#DejaVuSans-41" x="329.296875"/>
      <use xlink:href="#DejaVuSans-72" x="397.705078"/>
      <use xlink:href="#DejaVuSans-65" x="436.568359"/>
      <use xlink:href="#DejaVuSans-61" x="498.091797"/>
      <use xlink:href="#DejaVuSans-20" x="559.371094"/>
      <use xlink:href="#DejaVuSans-28" x="591.158203"/>
      <use xlink:href="#DejaVuSans-6b" x="630.171875"/>
      <use xlink:href="#DejaVuSans-6d" x="688.082031"/>
      <use xlink:href="#DejaVuSans-b2" x="785.494141"/>
      <use xlink:href="#DejaVuSans-29" x="825.582031"/>
     </g>
    </g>
   </g>
   <g id="matplotlib.axis_2">
    <g id="ytick_1">
     <g id="line2d_86">
      <defs>
       <path id="m86deaa30a9" d="M 0 0 
L -3.5 0 
" style="stroke: #000000; stroke-width: 0.8"/>
      </defs>
      <g>
       <use xlink:href="#m86deaa30a9" x="57.6" y="307.584" style="stroke: #000000; stroke-width: 0.8"/>
      </g>
     </g>
     <g id="text_11">
      <!-- 0 -->
      <g transform="translate(44.2375 311.383219) scale(0.1 -0.1)">
       <use xlink:href="#DejaVuSans-30"/>
      </g>
     </g>
    </g>
    <g id="ytick_2">
     <g id="line2d_87">
      <g>
       <use xlink:href="#m86deaa30a9" x="57.6" y="269.897755" style="stroke: #000000; stroke-width: 0.8"/>
      </g>
     </g>
     <g id="text_12">
      <!-- 1000 -->
      <g transform="translate(25.15 273.696973) scale(0.1 -0.1)">
       <use xlink:href="#DejaVuSans-31"/>
       <use xlink:href="#DejaVuSans-30" x="63.623047"/>
       <use xlink:href="#DejaVuSans-30" x="127.246094"/>
       <use xlink:href="#DejaVuSans-30" x="190.869141"/>
      </g>
     </g>
    </g>
    <g id="ytick_3">
     <g id="line2d_88">
      <g>
       <use xlink:href="#m86deaa30a9" x="57.6" y="232.211509" style="stroke: #000000; stroke-width: 0.8"/>
      </g>
     </g>
     <g id="text_13">
      <!-- 2000 -->
      <g transform="translate(25.15 236.010728) scale(0.1 -0.1)">
       <use xlink:href="#DejaVuSans-32"/>
       <use xlink:href="#DejaVuSans-30" x="63.623047"/>
       <use xlink:href="#DejaVuSans-30" x="127.246094"/>
       <use xlink:href="#DejaVuSans-30" x="190.869141"/>
      </g>
     </g>
    </g>
    <g id="ytick_4">
     <g id="line2d_89">
      <g>
       <use xlink:href="#m86deaa30a9" x="57.6" y="194.525264" style="stroke: #000000; stroke-width: 0.8"/>
      </g>
     </g>
     <g id="text_14">
      <!-- 3000 -->
      <g transform="translate(25.15 198.324483) scale(0.1 -0.1)">
       <use xlink:href="#DejaVuSans-33"/>
       <use xlink:href="#DejaVuSans-30" x="63.623047"/>
       <use xlink:href="#DejaVuSans-30" x="127.246094"/>
       <use xlink:href="#DejaVuSans-30" x="190.869141"/>
      </g>
     </g>
    </g>
    <g id="ytick_5">
     <g id="line2d_90">
      <g>
       <use xlink:href="#m86deaa30a9" x="57.6" y="156.839019" style="stroke: #000000; stroke-width: 0.8"/>
      </g>
     </g>
     <g id="text_15">
      <!-- 4000 -->
      <g transform="translate(25.15 160.638237) scale(0.1 -0.1)">
       <use xlink:href="#DejaVuSans-34"/>
       <use xlink:href="#DejaVuSans-30" x="63.623047"/>
       <use xlink:href="#DejaVuSans-30" x="127.246094"/>
       <use xlink:href="#DejaVuSans-30" x="190.869141"/>
      </g>
     </g>
    </g>
    <g id="ytick_6">
     <g id="line2d_91">
      <g>
       <use xlink:href="#m86deaa30a9" x="57.6" y="119.152773" style="stroke: #000000; stroke-width: 0.8"/>
      </g>
     </g>
     <g id="text_16">
      <!-- 5000 -->
      <g transform="translate(25.15 122.951992) scale(0.1 -0.1)">
       <use xlink:href="#DejaVuSans-35"/>
       <use xlink:href="#DejaVuSans-30" x="63.623047"/>
       <use xlink:href="#DejaVuSans-30" x="127.246094"/>
       <use xlink:href="#DejaVuSans-30" x="190.869141"/>
      </g>
     </g>
    </g>
    <g id="ytick_7">
     <g id="line2d_92">
      <g>
       <use xlink:href="#m86deaa30a9" x="57.6" y="81.466528" style="stroke: #000000; stroke-width: 0.8"/>
      </g>
     </g>
     <g id="text_17">
      <!-- 6000 -->
      <g transform="translate(25.15 85.265747) scale(0.1 -0.1)">
       <use xlink:href="#DejaVuSans-36"/>
       <use xlink:href="#DejaVuSans-30" x="63.623047"/>
       <use xlink:href="#DejaVuSans-30" x="127.246094"/>
       <use xlink:href="#DejaVuSans-30" x="190.869141"/>
      </g>
     </g>
    </g>
    <g id="ytick_8">
     <g id="line2d_93">
      <g>
       <use xlink:href="#m86deaa30a9" x="57.6" y="43.780283" style="stroke: #000000; stroke-width: 0.8"/>
      </g>
     </g>
     <g id="text_18">
      <!-- 7000 -->
      <g transform="translate(25.15 47.579501) scale(0.1 -0.1)">
       <defs>
        <path id="DejaVuSans-37" d="M 525 4666 
L 3525 4666 
L 3525 4397 
L 1831 0 
L 1172 0 
L 2766 4134 
L 525 4134 
L 525 4666 
z
" transform="scale(0.015625)"/>
       </defs>
       <use xlink:href="#DejaVuSans-37"/>
       <use xlink:href="#DejaVuSans-30" x="63.623047"/>
       <use xlink:href="#DejaVuSans-30" x="127.246094"/>
       <use xlink:href="#DejaVuSans-30" x="190.869141"/>
      </g>
     </g>
    </g>
    <g id="text_19">
     <!-- Number of Islands -->
     <g transform="translate(19.070312 220.092062) rotate(-90) scale(0.1 -0.1)">
      <defs>
       <path id="DejaVuSans-4e" d="M 628 4666 
L 1478 4666 
L 3547 763 
L 3547 4666 
L 4159 4666 
L 4159 0 
L 3309 0 
L 1241 3903 
L 1241 0 
L 628 0 
L 628 4666 
z
" transform="scale(0.015625)"/>
       <path id="DejaVuSans-75" d="M 544 1381 
L 544 3500 
L 1119 3500 
L 1119 1403 
Q 1119 906 1312 657 
Q 1506 409 1894 409 
Q 2359 409 2629 706 
Q 2900 1003 2900 1516 
L 2900 3500 
L 3475 3500 
L 3475 0 
L 2900 0 
L 2900 538 
Q 2691 219 2414 64 
Q 2138 -91 1772 -91 
Q 1169 -91 856 284 
Q 544 659 544 1381 
z
M 1991 3584 
L 1991 3584 
z
" transform="scale(0.015625)"/>
       <path id="DejaVuSans-62" d="M 3116 1747 
Q 3116 2381 2855 2742 
Q 2594 3103 2138 3103 
Q 1681 3103 1420 2742 
Q 1159 2381 1159 1747 
Q 1159 1113 1420 752 
Q 1681 391 2138 391 
Q 2594 391 2855 752 
Q 3116 1113 3116 1747 
z
M 1159 2969 
Q 1341 3281 1617 3432 
Q 1894 3584 2278 3584 
Q 2916 3584 3314 3078 
Q 3713 2572 3713 1747 
Q 3713 922 3314 415 
Q 2916 -91 2278 -91 
Q 1894 -91 1617 61 
Q 1341 213 1159 525 
L 1159 0 
L 581 0 
L 581 4863 
L 1159 4863 
L 1159 2969 
z
" transform="scale(0.015625)"/>
       <path id="DejaVuSans-6f" d="M 1959 3097 
Q 1497 3097 1228 2736 
Q 959 2375 959 1747 
Q 959 1119 1226 758 
Q 1494 397 1959 397 
Q 2419 397 2687 759 
Q 2956 1122 2956 1747 
Q 2956 2369 2687 2733 
Q 2419 3097 1959 3097 
z
M 1959 3584 
Q 2709 3584 3137 3096 
Q 3566 2609 3566 1747 
Q 3566 888 3137 398 
Q 2709 -91 1959 -91 
Q 1206 -91 779 398 
Q 353 888 353 1747 
Q 353 2609 779 3096 
Q 1206 3584 1959 3584 
z
" transform="scale(0.015625)"/>
       <path id="DejaVuSans-66" d="M 2375 4863 
L 2375 4384 
L 1825 4384 
Q 1516 4384 1395 4259 
Q 1275 4134 1275 3809 
L 1275 3500 
L 2222 3500 
L 2222 3053 
L 1275 3053 
L 1275 0 
L 697 0 
L 697 3053 
L 147 3053 
L 147 3500 
L 697 3500 
L 697 3744 
Q 697 4328 969 4595 
Q 1241 4863 1831 4863 
L 2375 4863 
z
" transform="scale(0.015625)"/>
      </defs>
      <use xlink:href="#DejaVuSans-4e"/>
      <use xlink:href="#DejaVuSans-75" x="74.804688"/>
      <use xlink:href="#DejaVuSans-6d" x="138.183594"/>
      <use xlink:href="#DejaVuSans-62" x="235.595703"/>
      <use xlink:href="#DejaVuSans-65" x="299.072266"/>
      <use xlink:href="#DejaVuSans-72" x="360.595703"/>
      <use xlink:href="#DejaVuSans-20" x="401.708984"/>
      <use xlink:href="#DejaVuSans-6f" x="433.496094"/>
      <use xlink:href="#DejaVuSans-66" x="494.677734"/>
      <use xlink:href="#DejaVuSans-20" x="529.882812"/>
      <use xlink:href="#DejaVuSans-49" x="561.669922"/>
      <use xlink:href="#DejaVuSans-73" x="591.162109"/>
      <use xlink:href="#DejaVuSans-6c" x="643.261719"/>
      <use xlink:href="#DejaVuSans-61" x="671.044922"/>
      <use xlink:href="#DejaVuSans-6e" x="732.324219"/>
      <use xlink:href="#DejaVuSans-64" x="795.703125"/>
      <use xlink:href="#DejaVuSans-73" x="859.179688"/>
     </g>
    </g>
   </g>
   <g id="line2d_94">
    <path d="M 177.767104 307.584 
L 177.767104 41.472 
" clip-path="url(#p408d558991)" style="fill: none; stroke-dasharray: 5.55,2.4; stroke-dashoffset: 0; stroke: #ff0000; stroke-width: 1.5"/>
   </g>
   <g id="patch_3">
    <path d="M 57.6 307.584 
L 57.6 41.472 
" style="fill: none; stroke: #000000; stroke-width: 0.8; stroke-linejoin: miter; stroke-linecap: square"/>
   </g>
   <g id="patch_4">
    <path d="M 414.72 307.584 
L 414.72 41.472 
" style="fill: none; stroke: #000000; stroke-width: 0.8; stroke-linejoin: miter; stroke-linecap: square"/>
   </g>
   <g id="patch_5">
    <path d="M 57.6 307.584 
L 414.72 307.584 
" style="fill: none; stroke: #000000; stroke-width: 0.8; stroke-linejoin: miter; stroke-linecap: square"/>
   </g>
   <g id="patch_6">
    <path d="M 57.6 41.472 
L 414.72 41.472 
" style="fill: none; stroke: #000000; stroke-width: 0.8; stroke-linejoin: miter; stroke-linecap: square"/>
   </g>
   <g id="legend_1">
    <g id="patch_7">
     <path d="M 335.080938 93.506375 
L 407.72 93.506375 
Q 409.72 93.506375 409.72 91.506375 
L 409.72 48.472 
Q 409.72 46.472 407.72 46.472 
L 335.080938 46.472 
Q 333.080938 46.472 333.080938 48.472 
L 333.080938 91.506375 
Q 333.080938 93.506375 335.080938 93.506375 
z
" style="fill: #ffffff; opacity: 0.8; stroke: #cccccc; stroke-linejoin: miter"/>
    </g>
    <g id="text_20">
     <!-- Area -->
     <g transform="translate(359.896563 58.070438) scale(0.1 -0.1)">
      <use xlink:href="#DejaVuSans-41"/>
      <use xlink:href="#DejaVuSans-72" x="68.408203"/>
      <use xlink:href="#DejaVuSans-65" x="107.271484"/>
      <use xlink:href="#DejaVuSans-61" x="168.794922"/>
     </g>
    </g>
    <g id="patch_8">
     <path d="M 337.080938 72.748563 
L 357.080938 72.748563 
L 357.080938 65.748563 
L 337.080938 65.748563 
z
" style="fill: #1f77b4; fill-opacity: 0.25; stroke: #1f77b4; stroke-linejoin: miter"/>
    </g>
    <g id="text_21">
     <!-- &gt; 1 km -->
     <g transform="translate(365.080938 72.748563) scale(0.1 -0.1)">
      <defs>
       <path id="DejaVuSans-3e" d="M 678 3150 
L 678 3719 
L 4684 2266 
L 4684 1747 
L 678 294 
L 678 863 
L 3897 2003 
L 678 3150 
z
" transform="scale(0.015625)"/>
      </defs>
      <use xlink:href="#DejaVuSans-3e"/>
      <use xlink:href="#DejaVuSans-20" x="83.789062"/>
      <use xlink:href="#DejaVuSans-31" x="115.576172"/>
      <use xlink:href="#DejaVuSans-20" x="179.199219"/>
      <use xlink:href="#DejaVuSans-6b" x="210.986328"/>
      <use xlink:href="#DejaVuSans-6d" x="268.896484"/>
      <use xlink:href="#DejaVuSans-b2" x="366.308594"/>
     </g>
    </g>
    <g id="patch_9">
     <path d="M 337.080938 87.426688 
L 357.080938 87.426688 
L 357.080938 80.426688 
L 337.080938 80.426688 
z
" style="fill: #ff7f0e; fill-opacity: 0.25; stroke: #ff7f0e; stroke-linejoin: miter"/>
    </g>
    <g id="text_22">
     <!-- &lt; 1 km -->
     <g transform="translate(365.080938 87.426688) scale(0.1 -0.1)">
      <defs>
       <path id="DejaVuSans-3c" d="M 4684 3150 
L 1459 2003 
L 4684 863 
L 4684 294 
L 678 1747 
L 678 2266 
L 4684 3719 
L 4684 3150 
z
" transform="scale(0.015625)"/>
      </defs>
      <use xlink:href="#DejaVuSans-3c"/>
      <use xlink:href="#DejaVuSans-20" x="83.789062"/>
      <use xlink:href="#DejaVuSans-31" x="115.576172"/>
      <use xlink:href="#DejaVuSans-20" x="179.199219"/>
      <use xlink:href="#DejaVuSans-6b" x="210.986328"/>
      <use xlink:href="#DejaVuSans-6d" x="268.896484"/>
      <use xlink:href="#DejaVuSans-b2" x="366.308594"/>
     </g>
    </g>
   </g>
  </g>
 </g>
 <defs>
  <clipPath id="p408d558991">
   <rect x="57.6" y="41.472" width="357.12" height="266.112"/>
  </clipPath>
 </defs>
</svg>
