<?xml version="1.0" encoding="utf-8" standalone="no"?>
<!DOCTYPE svg PUBLIC "-//W3C//DTD SVG 1.1//EN"
  "http://www.w3.org/Graphics/SVG/1.1/DTD/svg11.dtd">
<svg xmlns:xlink="http://www.w3.org/1999/xlink" width="460.8pt" height="345.6pt" viewBox="0 0 460.8 345.6" xmlns="http://www.w3.org/2000/svg" version="1.1">
 <metadata>
  <rdf:RDF xmlns:dc="http://purl.org/dc/elements/1.1/" xmlns:cc="http://creativecommons.org/ns#" xmlns:rdf="http://www.w3.org/1999/02/22-rdf-syntax-ns#">
   <cc:Work>
    <dc:type rdf:resource="http://purl.org/dc/dcmitype/StillImage"/>
    <dc:date>2024-05-17T11:03:38.795652</dc:date>
    <dc:format>image/svg+xml</dc:format>
    <dc:creator>
     <cc:Agent>
      <dc:title>Matplotlib v3.8.0, https://matplotlib.org/</dc:title>
     </cc:Agent>
    </dc:creator>
   </cc:Work>
  </rdf:RDF>
 </metadata>
 <defs>
  <style type="text/css">*{stroke-linejoin: round; stroke-linecap: butt}</style>
 </defs>
 <g id="figure_1">
  <g id="patch_1">
   <path d="M 0 345.6 
L 460.8 345.6 
L 460.8 0 
L 0 0 
z
" style="fill: #ffffff"/>
  </g>
  <g id="axes_1">
   <g id="patch_2">
    <path d="M 57.6 307.584 
L 414.72 307.584 
L 414.72 41.472 
L 57.6 41.472 
z
" style="fill: #ffffff"/>
   </g>
   <g id="PolyCollection_1">
    <defs>
     <path id="mef923636e4" d="M 73.832727 -57.700263 
L 73.832727 -38.016 
L 74.952226 -38.016 
L 76.071724 -38.016 
L 77.191223 -38.016 
L 78.310721 -38.016 
L 79.430219 -38.016 
L 80.549718 -38.016 
L 81.669216 -38.016 
L 82.788715 -38.016 
L 83.908213 -38.016 
L 85.027712 -38.016 
L 86.14721 -38.016 
L 87.266708 -38.016 
L 88.386207 -38.016 
L 89.505705 -38.016 
L 90.625204 -38.016 
L 91.744702 -38.016 
L 92.864201 -38.016 
L 93.983699 -38.016 
L 95.103197 -38.016 
L 96.222696 -38.016 
L 97.342194 -38.016 
L 98.461693 -38.016 
L 99.581191 -38.016 
L 100.70069 -38.016 
L 101.820188 -38.016 
L 102.939687 -38.016 
L 104.059185 -38.016 
L 105.178683 -38.016 
L 106.298182 -38.016 
L 107.41768 -38.016 
L 108.537179 -38.016 
L 109.656677 -38.016 
L 110.776176 -38.016 
L 111.895674 -38.016 
L 113.015172 -38.016 
L 114.134671 -38.016 
L 115.254169 -38.016 
L 116.373668 -38.016 
L 117.493166 -38.016 
L 118.612665 -38.016 
L 119.732163 -38.016 
L 120.851661 -38.016 
L 121.97116 -38.016 
L 123.090658 -38.016 
L 124.210157 -38.016 
L 125.329655 -38.016 
L 126.449154 -38.016 
L 127.568652 -38.016 
L 128.68815 -38.016 
L 129.807649 -38.016 
L 130.927147 -38.016 
L 132.046646 -38.016 
L 133.166144 -38.016 
L 134.285643 -38.016 
L 135.405141 -38.016 
L 136.524639 -38.016 
L 137.644138 -38.016 
L 138.763636 -38.016 
L 139.883135 -38.016 
L 141.002633 -38.016 
L 142.122132 -38.016 
L 143.24163 -38.016 
L 144.361129 -38.016 
L 145.480627 -38.016 
L 146.600125 -38.016 
L 147.719624 -38.016 
L 148.839122 -38.016 
L 149.958621 -38.016 
L 151.078119 -38.016 
L 152.197618 -38.016 
L 153.317116 -38.016 
L 154.436614 -38.016 
L 155.556113 -38.016 
L 156.675611 -38.016 
L 157.79511 -38.016 
L 158.914608 -38.016 
L 160.034107 -38.016 
L 161.153605 -38.016 
L 162.273103 -38.016 
L 163.392602 -38.016 
L 164.5121 -38.016 
L 165.631599 -38.016 
L 166.751097 -38.016 
L 167.870596 -38.016 
L 168.990094 -38.016 
L 170.109592 -38.016 
L 171.229091 -38.016 
L 172.348589 -38.016 
L 173.468088 -38.016 
L 174.587586 -38.016 
L 175.707085 -38.016 
L 176.826583 -38.016 
L 177.946082 -38.016 
L 179.06558 -38.016 
L 180.185078 -38.016 
L 181.304577 -38.016 
L 182.424075 -38.016 
L 183.543574 -38.016 
L 184.663072 -38.016 
L 185.782571 -38.016 
L 186.902069 -38.016 
L 188.021567 -38.016 
L 189.141066 -38.016 
L 190.260564 -38.016 
L 191.380063 -38.016 
L 192.499561 -38.016 
L 193.61906 -38.016 
L 194.738558 -38.016 
L 195.858056 -38.016 
L 196.977555 -38.016 
L 198.097053 -38.016 
L 199.216552 -38.016 
L 200.33605 -38.016 
L 201.455549 -38.016 
L 202.575047 -38.016 
L 203.694545 -38.016 
L 204.814044 -38.016 
L 205.933542 -38.016 
L 207.053041 -38.016 
L 208.172539 -38.016 
L 209.292038 -38.016 
L 210.411536 -38.016 
L 211.531034 -38.016 
L 212.650533 -38.016 
L 213.770031 -38.016 
L 214.88953 -38.016 
L 216.009028 -38.016 
L 217.128527 -38.016 
L 218.248025 -38.016 
L 219.367524 -38.016 
L 220.487022 -38.016 
L 221.60652 -38.016 
L 222.726019 -38.016 
L 223.845517 -38.016 
L 224.965016 -38.016 
L 226.084514 -38.016 
L 227.204013 -38.016 
L 228.323511 -38.016 
L 229.443009 -38.016 
L 230.562508 -38.016 
L 231.682006 -38.016 
L 232.801505 -38.016 
L 233.921003 -38.016 
L 235.040502 -38.016 
L 236.16 -38.016 
L 237.279498 -38.016 
L 238.398997 -38.016 
L 239.518495 -38.016 
L 240.637994 -38.016 
L 241.757492 -38.016 
L 242.876991 -38.016 
L 243.996489 -38.016 
L 245.115987 -38.016 
L 246.235486 -38.016 
L 247.354984 -38.016 
L 248.474483 -38.016 
L 249.593981 -38.016 
L 250.71348 -38.016 
L 251.832978 -38.016 
L 252.952476 -38.016 
L 254.071975 -38.016 
L 255.191473 -38.016 
L 256.310972 -38.016 
L 257.43047 -38.016 
L 258.549969 -38.016 
L 259.669467 -38.016 
L 260.788966 -38.016 
L 261.908464 -38.016 
L 263.027962 -38.016 
L 264.147461 -38.016 
L 265.266959 -38.016 
L 266.386458 -38.016 
L 267.505956 -38.016 
L 268.625455 -38.016 
L 269.744953 -38.016 
L 270.864451 -38.016 
L 271.98395 -38.016 
L 273.103448 -38.016 
L 274.222947 -38.016 
L 275.342445 -38.016 
L 276.461944 -38.016 
L 277.581442 -38.016 
L 278.70094 -38.016 
L 279.820439 -38.016 
L 280.939937 -38.016 
L 282.059436 -38.016 
L 283.178934 -38.016 
L 284.298433 -38.016 
L 285.417931 -38.016 
L 286.537429 -38.016 
L 287.656928 -38.016 
L 288.776426 -38.016 
L 289.895925 -38.016 
L 291.015423 -38.016 
L 292.134922 -38.016 
L 293.25442 -38.016 
L 294.373918 -38.016 
L 295.493417 -38.016 
L 296.612915 -38.016 
L 297.732414 -38.016 
L 298.851912 -38.016 
L 299.971411 -38.016 
L 301.090909 -38.016 
L 302.210408 -38.016 
L 303.329906 -38.016 
L 304.449404 -38.016 
L 305.568903 -38.016 
L 306.688401 -38.016 
L 307.8079 -38.016 
L 308.927398 -38.016 
L 310.046897 -38.016 
L 311.166395 -38.016 
L 312.285893 -38.016 
L 313.405392 -38.016 
L 314.52489 -38.016 
L 315.644389 -38.016 
L 316.763887 -38.016 
L 317.883386 -38.016 
L 319.002884 -38.016 
L 320.122382 -38.016 
L 321.241881 -38.016 
L 322.361379 -38.016 
L 323.480878 -38.016 
L 324.600376 -38.016 
L 325.719875 -38.016 
L 326.839373 -38.016 
L 327.958871 -38.016 
L 329.07837 -38.016 
L 330.197868 -38.016 
L 331.317367 -38.016 
L 332.436865 -38.016 
L 333.556364 -38.016 
L 334.675862 -38.016 
L 335.795361 -38.016 
L 336.914859 -38.016 
L 338.034357 -38.016 
L 339.153856 -38.016 
L 340.273354 -38.016 
L 341.392853 -38.016 
L 342.512351 -38.016 
L 343.63185 -38.016 
L 344.751348 -38.016 
L 345.870846 -38.016 
L 346.990345 -38.016 
L 348.109843 -38.016 
L 349.229342 -38.016 
L 350.34884 -38.016 
L 351.468339 -38.016 
L 352.587837 -38.016 
L 353.707335 -38.016 
L 354.826834 -38.016 
L 355.946332 -38.016 
L 357.065831 -38.016 
L 358.185329 -38.016 
L 359.304828 -38.016 
L 360.424326 -38.016 
L 361.543824 -38.016 
L 362.663323 -38.016 
L 363.782821 -38.016 
L 364.90232 -38.016 
L 366.021818 -38.016 
L 367.141317 -38.016 
L 368.260815 -38.016 
L 369.380313 -38.016 
L 370.499812 -38.016 
L 371.61931 -38.016 
L 372.738809 -38.016 
L 373.858307 -38.016 
L 374.977806 -38.016 
L 376.097304 -38.016 
L 377.216803 -38.016 
L 378.336301 -38.016 
L 379.455799 -38.016 
L 380.575298 -38.016 
L 381.694796 -38.016 
L 382.814295 -38.016 
L 383.933793 -38.016 
L 385.053292 -38.016 
L 386.17279 -38.016 
L 387.292288 -38.016 
L 388.411787 -38.016 
L 389.531285 -38.016 
L 390.650784 -38.016 
L 391.770282 -38.016 
L 392.889781 -38.016 
L 394.009279 -38.016 
L 395.128777 -38.016 
L 396.248276 -38.016 
L 397.367774 -38.016 
L 398.487273 -38.016 
L 398.487273 -38.016 
L 398.487273 -38.016 
L 397.367774 -38.016 
L 396.248276 -38.016 
L 395.128777 -38.016 
L 394.009279 -38.016 
L 392.889781 -38.016 
L 391.770282 -38.016 
L 390.650784 -38.016 
L 389.531285 -38.016 
L 388.411787 -38.016 
L 387.292288 -38.016 
L 386.17279 -38.016 
L 385.053292 -38.016 
L 383.933793 -38.016 
L 382.814295 -38.016 
L 381.694796 -38.016 
L 380.575298 -38.016 
L 379.455799 -38.016 
L 378.336301 -38.016 
L 377.216803 -38.016 
L 376.097304 -38.016 
L 374.977806 -38.016 
L 373.858307 -38.016 
L 372.738809 -38.016 
L 371.61931 -38.016 
L 370.499812 -38.016 
L 369.380313 -38.016 
L 368.260815 -38.016 
L 367.141317 -38.016 
L 366.021818 -38.016 
L 364.90232 -38.016 
L 363.782821 -38.016 
L 362.663323 -38.016 
L 361.543824 -38.016 
L 360.424326 -38.016 
L 359.304828 -38.016 
L 358.185329 -38.016 
L 357.065831 -38.016 
L 355.946332 -38.016 
L 354.826834 -38.016 
L 353.707335 -38.016 
L 352.587837 -38.016 
L 351.468339 -38.016 
L 350.34884 -38.016 
L 349.229342 -38.016 
L 348.109843 -38.016 
L 346.990345 -38.016 
L 345.870846 -38.016 
L 344.751348 -38.016 
L 343.63185 -38.016 
L 342.512351 -38.016 
L 341.392853 -38.016 
L 340.273354 -38.016 
L 339.153856 -38.016 
L 338.034357 -38.016 
L 336.914859 -38.016 
L 335.795361 -38.016 
L 334.675862 -38.016 
L 333.556364 -38.016 
L 332.436865 -38.016 
L 331.317367 -38.016 
L 330.197868 -38.016 
L 329.07837 -38.016 
L 327.958871 -38.016 
L 326.839373 -38.016 
L 325.719875 -38.016 
L 324.600376 -38.016 
L 323.480878 -38.016 
L 322.361379 -38.016 
L 321.241881 -38.016 
L 320.122382 -38.016 
L 319.002884 -38.016 
L 317.883386 -38.016 
L 316.763887 -38.016 
L 315.644389 -38.016 
L 314.52489 -38.016 
L 313.405392 -38.016 
L 312.285893 -38.016 
L 311.166395 -38.016 
L 310.046897 -38.016 
L 308.927398 -38.016 
L 307.8079 -38.016 
L 306.688401 -38.016 
L 305.568903 -38.016 
L 304.449404 -38.016 
L 303.329906 -38.016 
L 302.210408 -38.016 
L 301.090909 -38.016 
L 299.971411 -38.016 
L 298.851912 -38.016 
L 297.732414 -38.016 
L 296.612915 -38.016 
L 295.493417 -38.016 
L 294.373918 -38.016 
L 293.25442 -38.016 
L 292.134922 -38.016 
L 291.015423 -38.016 
L 289.895925 -38.016 
L 288.776426 -38.016 
L 287.656928 -38.016 
L 286.537429 -38.016 
L 285.417931 -38.016 
L 284.298433 -38.016 
L 283.178934 -38.016 
L 282.059436 -38.016 
L 280.939937 -38.016 
L 279.820439 -38.016 
L 278.70094 -38.016 
L 277.581442 -38.016 
L 276.461944 -38.016 
L 275.342445 -38.016 
L 274.222947 -38.016 
L 273.103448 -38.016 
L 271.98395 -38.016 
L 270.864451 -38.016 
L 269.744953 -38.016 
L 268.625455 -38.016 
L 267.505956 -38.016 
L 266.386458 -38.016 
L 265.266959 -38.016 
L 264.147461 -38.016 
L 263.027962 -38.016 
L 261.908464 -38.016 
L 260.788966 -38.016 
L 259.669467 -38.016 
L 258.549969 -38.016 
L 257.43047 -38.016 
L 256.310972 -38.016 
L 255.191473 -38.016 
L 254.071975 -38.016 
L 252.952476 -38.016 
L 251.832978 -38.016 
L 250.71348 -38.016 
L 249.593981 -38.016 
L 248.474483 -38.016 
L 247.354984 -38.016 
L 246.235486 -38.016 
L 245.115987 -38.016 
L 243.996489 -38.016 
L 242.876991 -38.016 
L 241.757492 -38.016 
L 240.637994 -38.016 
L 239.518495 -38.016 
L 238.398997 -38.016 
L 237.279498 -38.016 
L 236.16 -38.016 
L 235.040502 -38.016 
L 233.921003 -38.016 
L 232.801505 -38.016 
L 231.682006 -38.016 
L 230.562508 -38.016 
L 229.443009 -38.016 
L 228.323511 -38.016 
L 227.204013 -38.016 
L 226.084514 -38.016 
L 224.965016 -38.016 
L 223.845517 -38.016 
L 222.726019 -38.016 
L 221.60652 -38.016 
L 220.487022 -38.016 
L 219.367524 -38.016 
L 218.248025 -38.016 
L 217.128527 -38.016 
L 216.009028 -38.016 
L 214.88953 -38.016 
L 213.770031 -38.016 
L 212.650533 -38.016 
L 211.531034 -38.016 
L 210.411536 -38.056924 
L 209.292038 -38.016 
L 208.172539 -38.016 
L 207.053041 -38.016 
L 205.933542 -38.016 
L 204.814044 -38.056924 
L 203.694545 -38.056924 
L 202.575047 -38.056924 
L 201.455549 -38.097847 
L 200.33605 -38.056924 
L 199.216552 -38.056924 
L 198.097053 -38.056924 
L 196.977555 -38.056924 
L 195.858056 -38.056924 
L 194.738558 -38.097847 
L 193.61906 -38.138771 
L 192.499561 -38.220618 
L 191.380063 -38.179694 
L 190.260564 -38.302465 
L 189.141066 -38.261542 
L 188.021567 -38.548007 
L 186.902069 -38.548007 
L 185.782571 -38.507083 
L 184.663072 -38.91632 
L 183.543574 -38.91632 
L 182.424075 -38.91632 
L 181.304577 -39.120938 
L 180.185078 -39.48925 
L 179.06558 -39.325556 
L 177.946082 -39.775716 
L 176.826583 -40.512341 
L 175.707085 -40.512341 
L 174.587586 -41.044348 
L 173.468088 -41.28989 
L 172.348589 -42.435751 
L 171.229091 -43.499766 
L 170.109592 -44.809321 
L 168.990094 -44.973016 
L 167.870596 -47.551204 
L 166.751097 -47.182892 
L 165.631599 -49.802004 
L 164.5121 -51.438948 
L 163.392602 -52.707581 
L 162.273103 -55.040227 
L 161.153605 -58.927972 
L 160.034107 -60.810458 
L 158.914608 -62.938487 
L 157.79511 -66.621613 
L 156.675611 -70.42751 
L 155.556113 -71.737066 
L 154.436614 -76.52513 
L 153.317116 -81.354117 
L 152.197618 -82.213513 
L 151.078119 -85.528327 
L 149.958621 -88.39298 
L 148.839122 -90.439162 
L 147.719624 -94.408753 
L 146.600125 -98.010032 
L 145.480627 -100.956533 
L 144.361129 -104.31227 
L 143.24163 -105.417208 
L 142.122132 -107.708931 
L 141.002633 -106.767687 
L 139.883135 -109.304952 
L 138.763636 -111.064668 
L 137.644138 -115.975503 
L 136.524639 -118.758309 
L 135.405141 -122.973442 
L 134.285643 -121.868504 
L 133.166144 -128.784597 
L 132.046646 -132.672341 
L 130.927147 -130.585236 
L 129.807649 -137.787794 
L 128.68815 -141.962004 
L 127.568652 -146.750067 
L 126.449154 -149.369179 
L 125.329655 -152.479375 
L 124.210157 -155.303105 
L 123.090658 -160.582252 
L 121.97116 -162.464739 
L 120.851661 -165.124774 
L 119.732163 -171.836249 
L 118.612665 -173.43227 
L 117.493166 -177.974792 
L 116.373668 -187.182607 
L 115.254169 -191.520512 
L 114.134671 -193.566693 
L 113.015172 -204.616071 
L 111.895674 -199.582465 
L 110.776176 -207.480725 
L 109.656677 -211.000156 
L 108.537179 -217.834401 
L 107.41768 -225.323425 
L 106.298182 -227.656071 
L 105.178683 -235.308789 
L 104.059185 -233.794615 
L 102.939687 -246.317243 
L 101.820188 -248.936355 
L 100.70069 -250.736995 
L 99.581191 -254.133655 
L 98.461693 -257.080156 
L 97.342194 -262.482075 
L 96.222696 -270.912341 
L 95.103197 -273.6133 
L 93.983699 -270.625876 
L 92.864201 -283.557741 
L 91.744702 -281.470636 
L 90.625204 -286.954401 
L 89.505705 -286.70886 
L 88.386207 -285.685769 
L 87.266708 -291.456 
L 86.14721 -287.813798 
L 85.027712 -290.228291 
L 83.908213 -284.130671 
L 82.788715 -287.363638 
L 81.669216 -280.079233 
L 80.549718 -257.448469 
L 79.430219 -266.574437 
L 78.310721 -240.506089 
L 77.191223 -209.772448 
L 76.071724 -155.221258 
L 74.952226 -102.757172 
L 73.832727 -57.700263 
z
" style="stroke: #ff7f0e"/>
    </defs>
    <g clip-path="url(#p3e5f4c56bf)">
     <use xlink:href="#mef923636e4" x="0" y="345.6" style="fill: #ff7f0e; fill-opacity: 0.25; stroke: #ff7f0e"/>
    </g>
   </g>
   <g id="PolyCollection_2">
    <defs>
     <path id="m986cf8d0ed" d="M 73.832727 -38.016 
L 73.832727 -38.016 
L 74.952226 -38.016 
L 76.071724 -38.016 
L 77.191223 -38.016 
L 78.310721 -38.016 
L 79.430219 -38.016 
L 80.549718 -38.016 
L 81.669216 -38.016 
L 82.788715 -38.016 
L 83.908213 -38.016 
L 85.027712 -38.016 
L 86.14721 -38.016 
L 87.266708 -38.016 
L 88.386207 -38.016 
L 89.505705 -38.016 
L 90.625204 -38.016 
L 91.744702 -38.016 
L 92.864201 -38.016 
L 93.983699 -38.016 
L 95.103197 -38.016 
L 96.222696 -38.016 
L 97.342194 -38.016 
L 98.461693 -38.016 
L 99.581191 -38.016 
L 100.70069 -38.016 
L 101.820188 -38.016 
L 102.939687 -38.016 
L 104.059185 -38.016 
L 105.178683 -38.016 
L 106.298182 -38.016 
L 107.41768 -38.016 
L 108.537179 -38.016 
L 109.656677 -38.016 
L 110.776176 -38.016 
L 111.895674 -38.016 
L 113.015172 -38.016 
L 114.134671 -38.016 
L 115.254169 -38.016 
L 116.373668 -38.016 
L 117.493166 -38.016 
L 118.612665 -38.016 
L 119.732163 -38.016 
L 120.851661 -38.016 
L 121.97116 -38.016 
L 123.090658 -38.016 
L 124.210157 -38.016 
L 125.329655 -38.016 
L 126.449154 -38.016 
L 127.568652 -38.016 
L 128.68815 -38.016 
L 129.807649 -38.016 
L 130.927147 -38.016 
L 132.046646 -38.016 
L 133.166144 -38.016 
L 134.285643 -38.016 
L 135.405141 -38.016 
L 136.524639 -38.016 
L 137.644138 -38.016 
L 138.763636 -38.016 
L 139.883135 -38.016 
L 141.002633 -38.016 
L 142.122132 -38.016 
L 143.24163 -38.016 
L 144.361129 -38.016 
L 145.480627 -38.016 
L 146.600125 -38.016 
L 147.719624 -38.016 
L 148.839122 -38.016 
L 149.958621 -38.016 
L 151.078119 -38.016 
L 152.197618 -38.016 
L 153.317116 -38.016 
L 154.436614 -38.016 
L 155.556113 -38.016 
L 156.675611 -38.016 
L 157.79511 -38.016 
L 158.914608 -38.016 
L 160.034107 -38.016 
L 161.153605 -38.016 
L 162.273103 -38.016 
L 163.392602 -38.016 
L 164.5121 -38.016 
L 165.631599 -38.016 
L 166.751097 -38.016 
L 167.870596 -38.016 
L 168.990094 -38.016 
L 170.109592 -38.016 
L 171.229091 -38.016 
L 172.348589 -38.016 
L 173.468088 -38.016 
L 174.587586 -38.016 
L 175.707085 -38.016 
L 176.826583 -38.016 
L 177.946082 -38.016 
L 179.06558 -38.016 
L 180.185078 -38.016 
L 181.304577 -38.016 
L 182.424075 -38.016 
L 183.543574 -38.016 
L 184.663072 -38.016 
L 185.782571 -38.016 
L 186.902069 -38.016 
L 188.021567 -38.016 
L 189.141066 -38.016 
L 190.260564 -38.016 
L 191.380063 -38.016 
L 192.499561 -38.016 
L 193.61906 -38.016 
L 194.738558 -38.016 
L 195.858056 -38.016 
L 196.977555 -38.016 
L 198.097053 -38.016 
L 199.216552 -38.016 
L 200.33605 -38.016 
L 201.455549 -38.016 
L 202.575047 -38.016 
L 203.694545 -38.016 
L 204.814044 -38.016 
L 205.933542 -38.016 
L 207.053041 -38.016 
L 208.172539 -38.016 
L 209.292038 -38.016 
L 210.411536 -38.016 
L 211.531034 -38.016 
L 212.650533 -38.016 
L 213.770031 -38.016 
L 214.88953 -38.016 
L 216.009028 -38.016 
L 217.128527 -38.016 
L 218.248025 -38.016 
L 219.367524 -38.016 
L 220.487022 -38.016 
L 221.60652 -38.016 
L 222.726019 -38.016 
L 223.845517 -38.016 
L 224.965016 -38.016 
L 226.084514 -38.016 
L 227.204013 -38.016 
L 228.323511 -38.016 
L 229.443009 -38.016 
L 230.562508 -38.016 
L 231.682006 -38.016 
L 232.801505 -38.016 
L 233.921003 -38.016 
L 235.040502 -38.016 
L 236.16 -38.016 
L 237.279498 -38.016 
L 238.398997 -38.016 
L 239.518495 -38.016 
L 240.637994 -38.016 
L 241.757492 -38.016 
L 242.876991 -38.016 
L 243.996489 -38.016 
L 245.115987 -38.016 
L 246.235486 -38.016 
L 247.354984 -38.016 
L 248.474483 -38.016 
L 249.593981 -38.016 
L 250.71348 -38.016 
L 251.832978 -38.016 
L 252.952476 -38.016 
L 254.071975 -38.016 
L 255.191473 -38.016 
L 256.310972 -38.016 
L 257.43047 -38.016 
L 258.549969 -38.016 
L 259.669467 -38.016 
L 260.788966 -38.016 
L 261.908464 -38.016 
L 263.027962 -38.016 
L 264.147461 -38.016 
L 265.266959 -38.016 
L 266.386458 -38.016 
L 267.505956 -38.016 
L 268.625455 -38.016 
L 269.744953 -38.016 
L 270.864451 -38.016 
L 271.98395 -38.016 
L 273.103448 -38.016 
L 274.222947 -38.016 
L 275.342445 -38.016 
L 276.461944 -38.016 
L 277.581442 -38.016 
L 278.70094 -38.016 
L 279.820439 -38.016 
L 280.939937 -38.016 
L 282.059436 -38.016 
L 283.178934 -38.016 
L 284.298433 -38.016 
L 285.417931 -38.016 
L 286.537429 -38.016 
L 287.656928 -38.016 
L 288.776426 -38.016 
L 289.895925 -38.016 
L 291.015423 -38.016 
L 292.134922 -38.016 
L 293.25442 -38.016 
L 294.373918 -38.016 
L 295.493417 -38.016 
L 296.612915 -38.016 
L 297.732414 -38.016 
L 298.851912 -38.016 
L 299.971411 -38.016 
L 301.090909 -38.016 
L 302.210408 -38.016 
L 303.329906 -38.016 
L 304.449404 -38.016 
L 305.568903 -38.016 
L 306.688401 -38.016 
L 307.8079 -38.016 
L 308.927398 -38.016 
L 310.046897 -38.016 
L 311.166395 -38.016 
L 312.285893 -38.016 
L 313.405392 -38.016 
L 314.52489 -38.016 
L 315.644389 -38.016 
L 316.763887 -38.016 
L 317.883386 -38.016 
L 319.002884 -38.016 
L 320.122382 -38.016 
L 321.241881 -38.016 
L 322.361379 -38.016 
L 323.480878 -38.016 
L 324.600376 -38.016 
L 325.719875 -38.016 
L 326.839373 -38.016 
L 327.958871 -38.016 
L 329.07837 -38.016 
L 330.197868 -38.016 
L 331.317367 -38.016 
L 332.436865 -38.016 
L 333.556364 -38.016 
L 334.675862 -38.016 
L 335.795361 -38.016 
L 336.914859 -38.016 
L 338.034357 -38.016 
L 339.153856 -38.016 
L 340.273354 -38.016 
L 341.392853 -38.016 
L 342.512351 -38.016 
L 343.63185 -38.016 
L 344.751348 -38.016 
L 345.870846 -38.016 
L 346.990345 -38.016 
L 348.109843 -38.016 
L 349.229342 -38.016 
L 350.34884 -38.016 
L 351.468339 -38.016 
L 352.587837 -38.016 
L 353.707335 -38.016 
L 354.826834 -38.016 
L 355.946332 -38.016 
L 357.065831 -38.016 
L 358.185329 -38.016 
L 359.304828 -38.016 
L 360.424326 -38.016 
L 361.543824 -38.016 
L 362.663323 -38.016 
L 363.782821 -38.016 
L 364.90232 -38.016 
L 366.021818 -38.016 
L 367.141317 -38.016 
L 368.260815 -38.016 
L 369.380313 -38.016 
L 370.499812 -38.016 
L 371.61931 -38.016 
L 372.738809 -38.016 
L 373.858307 -38.016 
L 374.977806 -38.016 
L 376.097304 -38.016 
L 377.216803 -38.016 
L 378.336301 -38.016 
L 379.455799 -38.016 
L 380.575298 -38.016 
L 381.694796 -38.016 
L 382.814295 -38.016 
L 383.933793 -38.016 
L 385.053292 -38.016 
L 386.17279 -38.016 
L 387.292288 -38.016 
L 388.411787 -38.016 
L 389.531285 -38.016 
L 390.650784 -38.016 
L 391.770282 -38.016 
L 392.889781 -38.016 
L 394.009279 -38.016 
L 395.128777 -38.016 
L 396.248276 -38.016 
L 397.367774 -38.016 
L 398.487273 -38.016 
L 398.487273 -38.056924 
L 398.487273 -38.056924 
L 397.367774 -38.016 
L 396.248276 -38.016 
L 395.128777 -38.016 
L 394.009279 -38.016 
L 392.889781 -38.016 
L 391.770282 -38.056924 
L 390.650784 -38.016 
L 389.531285 -38.016 
L 388.411787 -38.016 
L 387.292288 -38.016 
L 386.17279 -38.016 
L 385.053292 -38.016 
L 383.933793 -38.056924 
L 382.814295 -38.016 
L 381.694796 -38.016 
L 380.575298 -38.016 
L 379.455799 -38.016 
L 378.336301 -38.016 
L 377.216803 -38.016 
L 376.097304 -38.016 
L 374.977806 -38.016 
L 373.858307 -38.016 
L 372.738809 -38.016 
L 371.61931 -38.016 
L 370.499812 -38.056924 
L 369.380313 -38.056924 
L 368.260815 -38.016 
L 367.141317 -38.016 
L 366.021818 -38.016 
L 364.90232 -38.016 
L 363.782821 -38.016 
L 362.663323 -38.016 
L 361.543824 -38.016 
L 360.424326 -38.097847 
L 359.304828 -38.056924 
L 358.185329 -38.138771 
L 357.065831 -38.016 
L 355.946332 -38.016 
L 354.826834 -38.016 
L 353.707335 -38.016 
L 352.587837 -38.016 
L 351.468339 -38.016 
L 350.34884 -38.016 
L 349.229342 -38.056924 
L 348.109843 -38.016 
L 346.990345 -38.138771 
L 345.870846 -38.056924 
L 344.751348 -38.016 
L 343.63185 -38.056924 
L 342.512351 -38.097847 
L 341.392853 -38.016 
L 340.273354 -38.138771 
L 339.153856 -38.056924 
L 338.034357 -38.016 
L 336.914859 -38.056924 
L 335.795361 -38.016 
L 334.675862 -38.097847 
L 333.556364 -38.097847 
L 332.436865 -38.179694 
L 331.317367 -38.179694 
L 330.197868 -38.016 
L 329.07837 -38.056924 
L 327.958871 -38.179694 
L 326.839373 -38.056924 
L 325.719875 -38.016 
L 324.600376 -38.016 
L 323.480878 -38.056924 
L 322.361379 -38.016 
L 321.241881 -38.097847 
L 320.122382 -38.097847 
L 319.002884 -38.056924 
L 317.883386 -38.097847 
L 316.763887 -38.056924 
L 315.644389 -38.016 
L 314.52489 -38.179694 
L 313.405392 -38.097847 
L 312.285893 -38.179694 
L 311.166395 -38.138771 
L 310.046897 -38.097847 
L 308.927398 -38.179694 
L 307.8079 -38.179694 
L 306.688401 -38.138771 
L 305.568903 -38.138771 
L 304.449404 -38.179694 
L 303.329906 -38.056924 
L 302.210408 -38.097847 
L 301.090909 -38.302465 
L 299.971411 -38.016 
L 298.851912 -38.056924 
L 297.732414 -38.261542 
L 296.612915 -38.056924 
L 295.493417 -38.261542 
L 294.373918 -38.138771 
L 293.25442 -38.179694 
L 292.134922 -38.220618 
L 291.015423 -38.220618 
L 289.895925 -38.302465 
L 288.776426 -38.425236 
L 287.656928 -38.261542 
L 286.537429 -38.138771 
L 285.417931 -38.384313 
L 284.298433 -38.302465 
L 283.178934 -38.46616 
L 282.059436 -38.302465 
L 280.939937 -38.179694 
L 279.820439 -38.302465 
L 278.70094 -38.629854 
L 277.581442 -38.548007 
L 276.461944 -38.629854 
L 275.342445 -38.425236 
L 274.222947 -38.343389 
L 273.103448 -38.629854 
L 271.98395 -38.46616 
L 270.864451 -38.588931 
L 269.744953 -38.670778 
L 268.625455 -38.425236 
L 267.505956 -38.752625 
L 266.386458 -38.752625 
L 265.266959 -38.834472 
L 264.147461 -38.834472 
L 263.027962 -38.507083 
L 261.908464 -39.161861 
L 260.788966 -38.752625 
L 259.669467 -39.120938 
L 258.549969 -39.120938 
L 257.43047 -38.793549 
L 256.310972 -39.284632 
L 255.191473 -39.448327 
L 254.071975 -39.612021 
L 252.952476 -39.325556 
L 251.832978 -39.243709 
L 250.71348 -39.36648 
L 249.593981 -39.775716 
L 248.474483 -39.612021 
L 247.354984 -39.857563 
L 246.235486 -40.103105 
L 245.115987 -39.816639 
L 243.996489 -40.757883 
L 242.876991 -39.816639 
L 241.757492 -40.307723 
L 240.637994 -40.062181 
L 239.518495 -40.307723 
L 238.398997 -40.635112 
L 237.279498 -41.126195 
L 236.16 -41.535432 
L 235.040502 -41.412661 
L 233.921003 -41.658202 
L 232.801505 -41.944668 
L 231.682006 -41.412661 
L 230.562508 -41.780973 
L 229.443009 -41.167119 
L 228.323511 -41.699126 
L 227.204013 -42.149286 
L 226.084514 -42.681293 
L 224.965016 -41.862821 
L 223.845517 -42.76314 
L 222.726019 -42.76314 
L 221.60652 -42.435751 
L 220.487022 -43.376995 
L 219.367524 -43.008682 
L 218.248025 -43.622536 
L 217.128527 -43.540689 
L 216.009028 -43.786231 
L 214.88953 -44.727474 
L 213.770031 -44.359162 
L 212.650533 -43.990849 
L 211.531034 -44.56378 
L 210.411536 -46.691808 
L 209.292038 -45.382252 
L 208.172539 -46.528114 
L 207.053041 -45.627794 
L 205.933542 -46.773655 
L 204.814044 -46.978274 
L 203.694545 -46.241648 
L 202.575047 -47.755822 
L 201.455549 -48.819837 
L 200.33605 -48.165059 
L 199.216552 -48.615218 
L 198.097053 -48.369677 
L 196.977555 -48.737989 
L 195.858056 -50.170316 
L 194.738558 -49.556462 
L 193.61906 -51.438948 
L 192.499561 -51.479872 
L 191.380063 -50.497705 
L 190.260564 -51.889108 
L 189.141066 -52.257421 
L 188.021567 -52.871275 
L 186.902069 -52.871275 
L 185.782571 -53.566977 
L 184.663072 -53.730671 
L 183.543574 -56.186089 
L 182.424075 -55.735929 
L 181.304577 -54.630991 
L 180.185078 -57.495645 
L 179.06558 -57.536568 
L 177.946082 -56.145165 
L 176.826583 -57.78211 
L 175.707085 -57.495645 
L 174.587586 -56.145165 
L 173.468088 -58.641506 
L 172.348589 -59.337208 
L 171.229091 -59.296284 
L 170.109592 -60.523993 
L 168.990094 -59.255361 
L 167.870596 -58.395964 
L 166.751097 -58.395964 
L 165.631599 -56.88179 
L 164.5121 -56.595325 
L 163.392602 -55.531311 
L 162.273103 -55.981471 
L 161.153605 -54.098984 
L 160.034107 -53.648824 
L 158.914608 -52.462039 
L 157.79511 -49.638309 
L 156.675611 -47.346586 
L 155.556113 -46.03703 
L 154.436614 -44.522856 
L 153.317116 -42.76314 
L 152.197618 -41.862821 
L 151.078119 -41.126195 
L 149.958621 -39.571098 
L 148.839122 -38.548007 
L 147.719624 -38.138771 
L 146.600125 -38.016 
L 145.480627 -38.016 
L 144.361129 -38.016 
L 143.24163 -38.016 
L 142.122132 -38.016 
L 141.002633 -38.016 
L 139.883135 -38.016 
L 138.763636 -38.016 
L 137.644138 -38.016 
L 136.524639 -38.016 
L 135.405141 -38.016 
L 134.285643 -38.016 
L 133.166144 -38.016 
L 132.046646 -38.016 
L 130.927147 -38.016 
L 129.807649 -38.016 
L 128.68815 -38.016 
L 127.568652 -38.016 
L 126.449154 -38.016 
L 125.329655 -38.016 
L 124.210157 -38.016 
L 123.090658 -38.016 
L 121.97116 -38.016 
L 120.851661 -38.016 
L 119.732163 -38.016 
L 118.612665 -38.016 
L 117.493166 -38.016 
L 116.373668 -38.016 
L 115.254169 -38.016 
L 114.134671 -38.016 
L 113.015172 -38.016 
L 111.895674 -38.016 
L 110.776176 -38.016 
L 109.656677 -38.016 
L 108.537179 -38.016 
L 107.41768 -38.016 
L 106.298182 -38.016 
L 105.178683 -38.016 
L 104.059185 -38.016 
L 102.939687 -38.016 
L 101.820188 -38.016 
L 100.70069 -38.016 
L 99.581191 -38.016 
L 98.461693 -38.016 
L 97.342194 -38.016 
L 96.222696 -38.016 
L 95.103197 -38.016 
L 93.983699 -38.016 
L 92.864201 -38.016 
L 91.744702 -38.016 
L 90.625204 -38.016 
L 89.505705 -38.016 
L 88.386207 -38.016 
L 87.266708 -38.016 
L 86.14721 -38.016 
L 85.027712 -38.016 
L 83.908213 -38.016 
L 82.788715 -38.016 
L 81.669216 -38.016 
L 80.549718 -38.016 
L 79.430219 -38.016 
L 78.310721 -38.016 
L 77.191223 -38.016 
L 76.071724 -38.016 
L 74.952226 -38.016 
L 73.832727 -38.016 
z
" style="stroke: #1f77b4"/>
    </defs>
    <g clip-path="url(#p3e5f4c56bf)">
     <use xlink:href="#m986cf8d0ed" x="0" y="345.6" style="fill: #1f77b4; fill-opacity: 0.25; stroke: #1f77b4"/>
    </g>
   </g>
   <g id="matplotlib.axis_1">
    <g id="xtick_1">
     <g id="line2d_1">
      <defs>
       <path id="madca8e518f" d="M 0 0 
L 0 3.5 
" style="stroke: #000000; stroke-width: 0.8"/>
      </defs>
      <g>
       <use xlink:href="#madca8e518f" x="112.759308" y="307.584" style="stroke: #000000; stroke-width: 0.8"/>
      </g>
     </g>
     <g id="text_1">
      <!-- $\mathdefault{10^{0}}$ -->
      <g transform="translate(103.959308 322.182437) scale(0.1 -0.1)">
       <defs>
        <path id="DejaVuSans-31" d="M 794 531 
L 1825 531 
L 1825 4091 
L 703 3866 
L 703 4441 
L 1819 4666 
L 2450 4666 
L 2450 531 
L 3481 531 
L 3481 0 
L 794 0 
L 794 531 
z
" transform="scale(0.015625)"/>
        <path id="DejaVuSans-30" d="M 2034 4250 
Q 1547 4250 1301 3770 
Q 1056 3291 1056 2328 
Q 1056 1369 1301 889 
Q 1547 409 2034 409 
Q 2525 409 2770 889 
Q 3016 1369 3016 2328 
Q 3016 3291 2770 3770 
Q 2525 4250 2034 4250 
z
M 2034 4750 
Q 2819 4750 3233 4129 
Q 3647 3509 3647 2328 
Q 3647 1150 3233 529 
Q 2819 -91 2034 -91 
Q 1250 -91 836 529 
Q 422 1150 422 2328 
Q 422 3509 836 4129 
Q 1250 4750 2034 4750 
z
" transform="scale(0.015625)"/>
       </defs>
       <use xlink:href="#DejaVuSans-31" transform="translate(0 0.765625)"/>
       <use xlink:href="#DejaVuSans-30" transform="translate(63.623047 0.765625)"/>
       <use xlink:href="#DejaVuSans-30" transform="translate(128.203125 39.046875) scale(0.7)"/>
      </g>
     </g>
    </g>
    <g id="xtick_2">
     <g id="line2d_2">
      <g>
       <use xlink:href="#madca8e518f" x="172.750989" y="307.584" style="stroke: #000000; stroke-width: 0.8"/>
      </g>
     </g>
     <g id="text_2">
      <!-- $\mathdefault{10^{1}}$ -->
      <g transform="translate(163.950989 322.182437) scale(0.1 -0.1)">
       <use xlink:href="#DejaVuSans-31" transform="translate(0 0.684375)"/>
       <use xlink:href="#DejaVuSans-30" transform="translate(63.623047 0.684375)"/>
       <use xlink:href="#DejaVuSans-31" transform="translate(128.203125 38.965625) scale(0.7)"/>
      </g>
     </g>
    </g>
    <g id="xtick_3">
     <g id="line2d_3">
      <g>
       <use xlink:href="#madca8e518f" x="232.74267" y="307.584" style="stroke: #000000; stroke-width: 0.8"/>
      </g>
     </g>
     <g id="text_3">
      <!-- $\mathdefault{10^{2}}$ -->
      <g transform="translate(223.94267 322.182437) scale(0.1 -0.1)">
       <defs>
        <path id="DejaVuSans-32" d="M 1228 531 
L 3431 531 
L 3431 0 
L 469 0 
L 469 531 
Q 828 903 1448 1529 
Q 2069 2156 2228 2338 
Q 2531 2678 2651 2914 
Q 2772 3150 2772 3378 
Q 2772 3750 2511 3984 
Q 2250 4219 1831 4219 
Q 1534 4219 1204 4116 
Q 875 4013 500 3803 
L 500 4441 
Q 881 4594 1212 4672 
Q 1544 4750 1819 4750 
Q 2544 4750 2975 4387 
Q 3406 4025 3406 3419 
Q 3406 3131 3298 2873 
Q 3191 2616 2906 2266 
Q 2828 2175 2409 1742 
Q 1991 1309 1228 531 
z
" transform="scale(0.015625)"/>
       </defs>
       <use xlink:href="#DejaVuSans-31" transform="translate(0 0.765625)"/>
       <use xlink:href="#DejaVuSans-30" transform="translate(63.623047 0.765625)"/>
       <use xlink:href="#DejaVuSans-32" transform="translate(128.203125 39.046875) scale(0.7)"/>
      </g>
     </g>
    </g>
    <g id="xtick_4">
     <g id="line2d_4">
      <g>
       <use xlink:href="#madca8e518f" x="292.734351" y="307.584" style="stroke: #000000; stroke-width: 0.8"/>
      </g>
     </g>
     <g id="text_4">
      <!-- $\mathdefault{10^{3}}$ -->
      <g transform="translate(283.934351 322.182437) scale(0.1 -0.1)">
       <defs>
        <path id="DejaVuSans-33" d="M 2597 2516 
Q 3050 2419 3304 2112 
Q 3559 1806 3559 1356 
Q 3559 666 3084 287 
Q 2609 -91 1734 -91 
Q 1441 -91 1130 -33 
Q 819 25 488 141 
L 488 750 
Q 750 597 1062 519 
Q 1375 441 1716 441 
Q 2309 441 2620 675 
Q 2931 909 2931 1356 
Q 2931 1769 2642 2001 
Q 2353 2234 1838 2234 
L 1294 2234 
L 1294 2753 
L 1863 2753 
Q 2328 2753 2575 2939 
Q 2822 3125 2822 3475 
Q 2822 3834 2567 4026 
Q 2313 4219 1838 4219 
Q 1578 4219 1281 4162 
Q 984 4106 628 3988 
L 628 4550 
Q 988 4650 1302 4700 
Q 1616 4750 1894 4750 
Q 2613 4750 3031 4423 
Q 3450 4097 3450 3541 
Q 3450 3153 3228 2886 
Q 3006 2619 2597 2516 
z
" transform="scale(0.015625)"/>
       </defs>
       <use xlink:href="#DejaVuSans-31" transform="translate(0 0.765625)"/>
       <use xlink:href="#DejaVuSans-30" transform="translate(63.623047 0.765625)"/>
       <use xlink:href="#DejaVuSans-33" transform="translate(128.203125 39.046875) scale(0.7)"/>
      </g>
     </g>
    </g>
    <g id="xtick_5">
     <g id="line2d_5">
      <g>
       <use xlink:href="#madca8e518f" x="352.726032" y="307.584" style="stroke: #000000; stroke-width: 0.8"/>
      </g>
     </g>
     <g id="text_5">
      <!-- $\mathdefault{10^{4}}$ -->
      <g transform="translate(343.926032 322.182437) scale(0.1 -0.1)">
       <defs>
        <path id="DejaVuSans-34" d="M 2419 4116 
L 825 1625 
L 2419 1625 
L 2419 4116 
z
M 2253 4666 
L 3047 4666 
L 3047 1625 
L 3713 1625 
L 3713 1100 
L 3047 1100 
L 3047 0 
L 2419 0 
L 2419 1100 
L 313 1100 
L 313 1709 
L 2253 4666 
z
" transform="scale(0.015625)"/>
       </defs>
       <use xlink:href="#DejaVuSans-31" transform="translate(0 0.684375)"/>
       <use xlink:href="#DejaVuSans-30" transform="translate(63.623047 0.684375)"/>
       <use xlink:href="#DejaVuSans-34" transform="translate(128.203125 38.965625) scale(0.7)"/>
      </g>
     </g>
    </g>
    <g id="xtick_6">
     <g id="line2d_6">
      <g>
       <use xlink:href="#madca8e518f" x="412.717713" y="307.584" style="stroke: #000000; stroke-width: 0.8"/>
      </g>
     </g>
     <g id="text_6">
      <!-- $\mathdefault{10^{5}}$ -->
      <g transform="translate(403.917713 322.182437) scale(0.1 -0.1)">
       <defs>
        <path id="DejaVuSans-35" d="M 691 4666 
L 3169 4666 
L 3169 4134 
L 1269 4134 
L 1269 2991 
Q 1406 3038 1543 3061 
Q 1681 3084 1819 3084 
Q 2600 3084 3056 2656 
Q 3513 2228 3513 1497 
Q 3513 744 3044 326 
Q 2575 -91 1722 -91 
Q 1428 -91 1123 -41 
Q 819 9 494 109 
L 494 744 
Q 775 591 1075 516 
Q 1375 441 1709 441 
Q 2250 441 2565 725 
Q 2881 1009 2881 1497 
Q 2881 1984 2565 2268 
Q 2250 2553 1709 2553 
Q 1456 2553 1204 2497 
Q 953 2441 691 2322 
L 691 4666 
z
" transform="scale(0.015625)"/>
       </defs>
       <use xlink:href="#DejaVuSans-31" transform="translate(0 0.684375)"/>
       <use xlink:href="#DejaVuSans-30" transform="translate(63.623047 0.684375)"/>
       <use xlink:href="#DejaVuSans-35" transform="translate(128.203125 38.965625) scale(0.7)"/>
      </g>
     </g>
    </g>
    <g id="xtick_7">
     <g id="line2d_7">
      <defs>
       <path id="m2ec7f5c2d9" d="M 0 0 
L 0 2 
" style="stroke: #000000; stroke-width: 0.6"/>
      </defs>
      <g>
       <use xlink:href="#m2ec7f5c2d9" x="70.826923" y="307.584" style="stroke: #000000; stroke-width: 0.6"/>
      </g>
     </g>
    </g>
    <g id="xtick_8">
     <g id="line2d_8">
      <g>
       <use xlink:href="#m2ec7f5c2d9" x="81.390933" y="307.584" style="stroke: #000000; stroke-width: 0.6"/>
      </g>
     </g>
    </g>
    <g id="xtick_9">
     <g id="line2d_9">
      <g>
       <use xlink:href="#m2ec7f5c2d9" x="88.886218" y="307.584" style="stroke: #000000; stroke-width: 0.6"/>
      </g>
     </g>
    </g>
    <g id="xtick_10">
     <g id="line2d_10">
      <g>
       <use xlink:href="#m2ec7f5c2d9" x="94.700013" y="307.584" style="stroke: #000000; stroke-width: 0.6"/>
      </g>
     </g>
    </g>
    <g id="xtick_11">
     <g id="line2d_11">
      <g>
       <use xlink:href="#m2ec7f5c2d9" x="99.450229" y="307.584" style="stroke: #000000; stroke-width: 0.6"/>
      </g>
     </g>
    </g>
    <g id="xtick_12">
     <g id="line2d_12">
      <g>
       <use xlink:href="#m2ec7f5c2d9" x="103.466479" y="307.584" style="stroke: #000000; stroke-width: 0.6"/>
      </g>
     </g>
    </g>
    <g id="xtick_13">
     <g id="line2d_13">
      <g>
       <use xlink:href="#m2ec7f5c2d9" x="106.945514" y="307.584" style="stroke: #000000; stroke-width: 0.6"/>
      </g>
     </g>
    </g>
    <g id="xtick_14">
     <g id="line2d_14">
      <g>
       <use xlink:href="#m2ec7f5c2d9" x="110.014239" y="307.584" style="stroke: #000000; stroke-width: 0.6"/>
      </g>
     </g>
    </g>
    <g id="xtick_15">
     <g id="line2d_15">
      <g>
       <use xlink:href="#m2ec7f5c2d9" x="130.818604" y="307.584" style="stroke: #000000; stroke-width: 0.6"/>
      </g>
     </g>
    </g>
    <g id="xtick_16">
     <g id="line2d_16">
      <g>
       <use xlink:href="#m2ec7f5c2d9" x="141.382614" y="307.584" style="stroke: #000000; stroke-width: 0.6"/>
      </g>
     </g>
    </g>
    <g id="xtick_17">
     <g id="line2d_17">
      <g>
       <use xlink:href="#m2ec7f5c2d9" x="148.877899" y="307.584" style="stroke: #000000; stroke-width: 0.6"/>
      </g>
     </g>
    </g>
    <g id="xtick_18">
     <g id="line2d_18">
      <g>
       <use xlink:href="#m2ec7f5c2d9" x="154.691694" y="307.584" style="stroke: #000000; stroke-width: 0.6"/>
      </g>
     </g>
    </g>
    <g id="xtick_19">
     <g id="line2d_19">
      <g>
       <use xlink:href="#m2ec7f5c2d9" x="159.44191" y="307.584" style="stroke: #000000; stroke-width: 0.6"/>
      </g>
     </g>
    </g>
    <g id="xtick_20">
     <g id="line2d_20">
      <g>
       <use xlink:href="#m2ec7f5c2d9" x="163.45816" y="307.584" style="stroke: #000000; stroke-width: 0.6"/>
      </g>
     </g>
    </g>
    <g id="xtick_21">
     <g id="line2d_21">
      <g>
       <use xlink:href="#m2ec7f5c2d9" x="166.937195" y="307.584" style="stroke: #000000; stroke-width: 0.6"/>
      </g>
     </g>
    </g>
    <g id="xtick_22">
     <g id="line2d_22">
      <g>
       <use xlink:href="#m2ec7f5c2d9" x="170.005921" y="307.584" style="stroke: #000000; stroke-width: 0.6"/>
      </g>
     </g>
    </g>
    <g id="xtick_23">
     <g id="line2d_23">
      <g>
       <use xlink:href="#m2ec7f5c2d9" x="190.810285" y="307.584" style="stroke: #000000; stroke-width: 0.6"/>
      </g>
     </g>
    </g>
    <g id="xtick_24">
     <g id="line2d_24">
      <g>
       <use xlink:href="#m2ec7f5c2d9" x="201.374295" y="307.584" style="stroke: #000000; stroke-width: 0.6"/>
      </g>
     </g>
    </g>
    <g id="xtick_25">
     <g id="line2d_25">
      <g>
       <use xlink:href="#m2ec7f5c2d9" x="208.86958" y="307.584" style="stroke: #000000; stroke-width: 0.6"/>
      </g>
     </g>
    </g>
    <g id="xtick_26">
     <g id="line2d_26">
      <g>
       <use xlink:href="#m2ec7f5c2d9" x="214.683375" y="307.584" style="stroke: #000000; stroke-width: 0.6"/>
      </g>
     </g>
    </g>
    <g id="xtick_27">
     <g id="line2d_27">
      <g>
       <use xlink:href="#m2ec7f5c2d9" x="219.433591" y="307.584" style="stroke: #000000; stroke-width: 0.6"/>
      </g>
     </g>
    </g>
    <g id="xtick_28">
     <g id="line2d_28">
      <g>
       <use xlink:href="#m2ec7f5c2d9" x="223.449841" y="307.584" style="stroke: #000000; stroke-width: 0.6"/>
      </g>
     </g>
    </g>
    <g id="xtick_29">
     <g id="line2d_29">
      <g>
       <use xlink:href="#m2ec7f5c2d9" x="226.928876" y="307.584" style="stroke: #000000; stroke-width: 0.6"/>
      </g>
     </g>
    </g>
    <g id="xtick_30">
     <g id="line2d_30">
      <g>
       <use xlink:href="#m2ec7f5c2d9" x="229.997602" y="307.584" style="stroke: #000000; stroke-width: 0.6"/>
      </g>
     </g>
    </g>
    <g id="xtick_31">
     <g id="line2d_31">
      <g>
       <use xlink:href="#m2ec7f5c2d9" x="250.801966" y="307.584" style="stroke: #000000; stroke-width: 0.6"/>
      </g>
     </g>
    </g>
    <g id="xtick_32">
     <g id="line2d_32">
      <g>
       <use xlink:href="#m2ec7f5c2d9" x="261.365976" y="307.584" style="stroke: #000000; stroke-width: 0.6"/>
      </g>
     </g>
    </g>
    <g id="xtick_33">
     <g id="line2d_33">
      <g>
       <use xlink:href="#m2ec7f5c2d9" x="268.861261" y="307.584" style="stroke: #000000; stroke-width: 0.6"/>
      </g>
     </g>
    </g>
    <g id="xtick_34">
     <g id="line2d_34">
      <g>
       <use xlink:href="#m2ec7f5c2d9" x="274.675056" y="307.584" style="stroke: #000000; stroke-width: 0.6"/>
      </g>
     </g>
    </g>
    <g id="xtick_35">
     <g id="line2d_35">
      <g>
       <use xlink:href="#m2ec7f5c2d9" x="279.425272" y="307.584" style="stroke: #000000; stroke-width: 0.6"/>
      </g>
     </g>
    </g>
    <g id="xtick_36">
     <g id="line2d_36">
      <g>
       <use xlink:href="#m2ec7f5c2d9" x="283.441522" y="307.584" style="stroke: #000000; stroke-width: 0.6"/>
      </g>
     </g>
    </g>
    <g id="xtick_37">
     <g id="line2d_37">
      <g>
       <use xlink:href="#m2ec7f5c2d9" x="286.920557" y="307.584" style="stroke: #000000; stroke-width: 0.6"/>
      </g>
     </g>
    </g>
    <g id="xtick_38">
     <g id="line2d_38">
      <g>
       <use xlink:href="#m2ec7f5c2d9" x="289.989283" y="307.584" style="stroke: #000000; stroke-width: 0.6"/>
      </g>
     </g>
    </g>
    <g id="xtick_39">
     <g id="line2d_39">
      <g>
       <use xlink:href="#m2ec7f5c2d9" x="310.793647" y="307.584" style="stroke: #000000; stroke-width: 0.6"/>
      </g>
     </g>
    </g>
    <g id="xtick_40">
     <g id="line2d_40">
      <g>
       <use xlink:href="#m2ec7f5c2d9" x="321.357657" y="307.584" style="stroke: #000000; stroke-width: 0.6"/>
      </g>
     </g>
    </g>
    <g id="xtick_41">
     <g id="line2d_41">
      <g>
       <use xlink:href="#m2ec7f5c2d9" x="328.852942" y="307.584" style="stroke: #000000; stroke-width: 0.6"/>
      </g>
     </g>
    </g>
    <g id="xtick_42">
     <g id="line2d_42">
      <g>
       <use xlink:href="#m2ec7f5c2d9" x="334.666737" y="307.584" style="stroke: #000000; stroke-width: 0.6"/>
      </g>
     </g>
    </g>
    <g id="xtick_43">
     <g id="line2d_43">
      <g>
       <use xlink:href="#m2ec7f5c2d9" x="339.416953" y="307.584" style="stroke: #000000; stroke-width: 0.6"/>
      </g>
     </g>
    </g>
    <g id="xtick_44">
     <g id="line2d_44">
      <g>
       <use xlink:href="#m2ec7f5c2d9" x="343.433203" y="307.584" style="stroke: #000000; stroke-width: 0.6"/>
      </g>
     </g>
    </g>
    <g id="xtick_45">
     <g id="line2d_45">
      <g>
       <use xlink:href="#m2ec7f5c2d9" x="346.912238" y="307.584" style="stroke: #000000; stroke-width: 0.6"/>
      </g>
     </g>
    </g>
    <g id="xtick_46">
     <g id="line2d_46">
      <g>
       <use xlink:href="#m2ec7f5c2d9" x="349.980964" y="307.584" style="stroke: #000000; stroke-width: 0.6"/>
      </g>
     </g>
    </g>
    <g id="xtick_47">
     <g id="line2d_47">
      <g>
       <use xlink:href="#m2ec7f5c2d9" x="370.785328" y="307.584" style="stroke: #000000; stroke-width: 0.6"/>
      </g>
     </g>
    </g>
    <g id="xtick_48">
     <g id="line2d_48">
      <g>
       <use xlink:href="#m2ec7f5c2d9" x="381.349339" y="307.584" style="stroke: #000000; stroke-width: 0.6"/>
      </g>
     </g>
    </g>
    <g id="xtick_49">
     <g id="line2d_49">
      <g>
       <use xlink:href="#m2ec7f5c2d9" x="388.844623" y="307.584" style="stroke: #000000; stroke-width: 0.6"/>
      </g>
     </g>
    </g>
    <g id="xtick_50">
     <g id="line2d_50">
      <g>
       <use xlink:href="#m2ec7f5c2d9" x="394.658418" y="307.584" style="stroke: #000000; stroke-width: 0.6"/>
      </g>
     </g>
    </g>
    <g id="xtick_51">
     <g id="line2d_51">
      <g>
       <use xlink:href="#m2ec7f5c2d9" x="399.408634" y="307.584" style="stroke: #000000; stroke-width: 0.6"/>
      </g>
     </g>
    </g>
    <g id="xtick_52">
     <g id="line2d_52">
      <g>
       <use xlink:href="#m2ec7f5c2d9" x="403.424884" y="307.584" style="stroke: #000000; stroke-width: 0.6"/>
      </g>
     </g>
    </g>
    <g id="xtick_53">
     <g id="line2d_53">
      <g>
       <use xlink:href="#m2ec7f5c2d9" x="406.903919" y="307.584" style="stroke: #000000; stroke-width: 0.6"/>
      </g>
     </g>
    </g>
    <g id="xtick_54">
     <g id="line2d_54">
      <g>
       <use xlink:href="#m2ec7f5c2d9" x="409.972645" y="307.584" style="stroke: #000000; stroke-width: 0.6"/>
      </g>
     </g>
    </g>
    <g id="text_7">
     <!-- Island Coastline Length (km) -->
     <g transform="translate(164.399844 335.860562) scale(0.1 -0.1)">
      <defs>
       <path id="DejaVuSans-49" d="M 628 4666 
L 1259 4666 
L 1259 0 
L 628 0 
L 628 4666 
z
" transform="scale(0.015625)"/>
       <path id="DejaVuSans-73" d="M 2834 3397 
L 2834 2853 
Q 2591 2978 2328 3040 
Q 2066 3103 1784 3103 
Q 1356 3103 1142 2972 
Q 928 2841 928 2578 
Q 928 2378 1081 2264 
Q 1234 2150 1697 2047 
L 1894 2003 
Q 2506 1872 2764 1633 
Q 3022 1394 3022 966 
Q 3022 478 2636 193 
Q 2250 -91 1575 -91 
Q 1294 -91 989 -36 
Q 684 19 347 128 
L 347 722 
Q 666 556 975 473 
Q 1284 391 1588 391 
Q 1994 391 2212 530 
Q 2431 669 2431 922 
Q 2431 1156 2273 1281 
Q 2116 1406 1581 1522 
L 1381 1569 
Q 847 1681 609 1914 
Q 372 2147 372 2553 
Q 372 3047 722 3315 
Q 1072 3584 1716 3584 
Q 2034 3584 2315 3537 
Q 2597 3491 2834 3397 
z
" transform="scale(0.015625)"/>
       <path id="DejaVuSans-6c" d="M 603 4863 
L 1178 4863 
L 1178 0 
L 603 0 
L 603 4863 
z
" transform="scale(0.015625)"/>
       <path id="DejaVuSans-61" d="M 2194 1759 
Q 1497 1759 1228 1600 
Q 959 1441 959 1056 
Q 959 750 1161 570 
Q 1363 391 1709 391 
Q 2188 391 2477 730 
Q 2766 1069 2766 1631 
L 2766 1759 
L 2194 1759 
z
M 3341 1997 
L 3341 0 
L 2766 0 
L 2766 531 
Q 2569 213 2275 61 
Q 1981 -91 1556 -91 
Q 1019 -91 701 211 
Q 384 513 384 1019 
Q 384 1609 779 1909 
Q 1175 2209 1959 2209 
L 2766 2209 
L 2766 2266 
Q 2766 2663 2505 2880 
Q 2244 3097 1772 3097 
Q 1472 3097 1187 3025 
Q 903 2953 641 2809 
L 641 3341 
Q 956 3463 1253 3523 
Q 1550 3584 1831 3584 
Q 2591 3584 2966 3190 
Q 3341 2797 3341 1997 
z
" transform="scale(0.015625)"/>
       <path id="DejaVuSans-6e" d="M 3513 2113 
L 3513 0 
L 2938 0 
L 2938 2094 
Q 2938 2591 2744 2837 
Q 2550 3084 2163 3084 
Q 1697 3084 1428 2787 
Q 1159 2491 1159 1978 
L 1159 0 
L 581 0 
L 581 3500 
L 1159 3500 
L 1159 2956 
Q 1366 3272 1645 3428 
Q 1925 3584 2291 3584 
Q 2894 3584 3203 3211 
Q 3513 2838 3513 2113 
z
" transform="scale(0.015625)"/>
       <path id="DejaVuSans-64" d="M 2906 2969 
L 2906 4863 
L 3481 4863 
L 3481 0 
L 2906 0 
L 2906 525 
Q 2725 213 2448 61 
Q 2172 -91 1784 -91 
Q 1150 -91 751 415 
Q 353 922 353 1747 
Q 353 2572 751 3078 
Q 1150 3584 1784 3584 
Q 2172 3584 2448 3432 
Q 2725 3281 2906 2969 
z
M 947 1747 
Q 947 1113 1208 752 
Q 1469 391 1925 391 
Q 2381 391 2643 752 
Q 2906 1113 2906 1747 
Q 2906 2381 2643 2742 
Q 2381 3103 1925 3103 
Q 1469 3103 1208 2742 
Q 947 2381 947 1747 
z
" transform="scale(0.015625)"/>
       <path id="DejaVuSans-20" transform="scale(0.015625)"/>
       <path id="DejaVuSans-43" d="M 4122 4306 
L 4122 3641 
Q 3803 3938 3442 4084 
Q 3081 4231 2675 4231 
Q 1875 4231 1450 3742 
Q 1025 3253 1025 2328 
Q 1025 1406 1450 917 
Q 1875 428 2675 428 
Q 3081 428 3442 575 
Q 3803 722 4122 1019 
L 4122 359 
Q 3791 134 3420 21 
Q 3050 -91 2638 -91 
Q 1578 -91 968 557 
Q 359 1206 359 2328 
Q 359 3453 968 4101 
Q 1578 4750 2638 4750 
Q 3056 4750 3426 4639 
Q 3797 4528 4122 4306 
z
" transform="scale(0.015625)"/>
       <path id="DejaVuSans-6f" d="M 1959 3097 
Q 1497 3097 1228 2736 
Q 959 2375 959 1747 
Q 959 1119 1226 758 
Q 1494 397 1959 397 
Q 2419 397 2687 759 
Q 2956 1122 2956 1747 
Q 2956 2369 2687 2733 
Q 2419 3097 1959 3097 
z
M 1959 3584 
Q 2709 3584 3137 3096 
Q 3566 2609 3566 1747 
Q 3566 888 3137 398 
Q 2709 -91 1959 -91 
Q 1206 -91 779 398 
Q 353 888 353 1747 
Q 353 2609 779 3096 
Q 1206 3584 1959 3584 
z
" transform="scale(0.015625)"/>
       <path id="DejaVuSans-74" d="M 1172 4494 
L 1172 3500 
L 2356 3500 
L 2356 3053 
L 1172 3053 
L 1172 1153 
Q 1172 725 1289 603 
Q 1406 481 1766 481 
L 2356 481 
L 2356 0 
L 1766 0 
Q 1100 0 847 248 
Q 594 497 594 1153 
L 594 3053 
L 172 3053 
L 172 3500 
L 594 3500 
L 594 4494 
L 1172 4494 
z
" transform="scale(0.015625)"/>
       <path id="DejaVuSans-69" d="M 603 3500 
L 1178 3500 
L 1178 0 
L 603 0 
L 603 3500 
z
M 603 4863 
L 1178 4863 
L 1178 4134 
L 603 4134 
L 603 4863 
z
" transform="scale(0.015625)"/>
       <path id="DejaVuSans-65" d="M 3597 1894 
L 3597 1613 
L 953 1613 
Q 991 1019 1311 708 
Q 1631 397 2203 397 
Q 2534 397 2845 478 
Q 3156 559 3463 722 
L 3463 178 
Q 3153 47 2828 -22 
Q 2503 -91 2169 -91 
Q 1331 -91 842 396 
Q 353 884 353 1716 
Q 353 2575 817 3079 
Q 1281 3584 2069 3584 
Q 2775 3584 3186 3129 
Q 3597 2675 3597 1894 
z
M 3022 2063 
Q 3016 2534 2758 2815 
Q 2500 3097 2075 3097 
Q 1594 3097 1305 2825 
Q 1016 2553 972 2059 
L 3022 2063 
z
" transform="scale(0.015625)"/>
       <path id="DejaVuSans-4c" d="M 628 4666 
L 1259 4666 
L 1259 531 
L 3531 531 
L 3531 0 
L 628 0 
L 628 4666 
z
" transform="scale(0.015625)"/>
       <path id="DejaVuSans-67" d="M 2906 1791 
Q 2906 2416 2648 2759 
Q 2391 3103 1925 3103 
Q 1463 3103 1205 2759 
Q 947 2416 947 1791 
Q 947 1169 1205 825 
Q 1463 481 1925 481 
Q 2391 481 2648 825 
Q 2906 1169 2906 1791 
z
M 3481 434 
Q 3481 -459 3084 -895 
Q 2688 -1331 1869 -1331 
Q 1566 -1331 1297 -1286 
Q 1028 -1241 775 -1147 
L 775 -588 
Q 1028 -725 1275 -790 
Q 1522 -856 1778 -856 
Q 2344 -856 2625 -561 
Q 2906 -266 2906 331 
L 2906 616 
Q 2728 306 2450 153 
Q 2172 0 1784 0 
Q 1141 0 747 490 
Q 353 981 353 1791 
Q 353 2603 747 3093 
Q 1141 3584 1784 3584 
Q 2172 3584 2450 3431 
Q 2728 3278 2906 2969 
L 2906 3500 
L 3481 3500 
L 3481 434 
z
" transform="scale(0.015625)"/>
       <path id="DejaVuSans-68" d="M 3513 2113 
L 3513 0 
L 2938 0 
L 2938 2094 
Q 2938 2591 2744 2837 
Q 2550 3084 2163 3084 
Q 1697 3084 1428 2787 
Q 1159 2491 1159 1978 
L 1159 0 
L 581 0 
L 581 4863 
L 1159 4863 
L 1159 2956 
Q 1366 3272 1645 3428 
Q 1925 3584 2291 3584 
Q 2894 3584 3203 3211 
Q 3513 2838 3513 2113 
z
" transform="scale(0.015625)"/>
       <path id="DejaVuSans-28" d="M 1984 4856 
Q 1566 4138 1362 3434 
Q 1159 2731 1159 2009 
Q 1159 1288 1364 580 
Q 1569 -128 1984 -844 
L 1484 -844 
Q 1016 -109 783 600 
Q 550 1309 550 2009 
Q 550 2706 781 3412 
Q 1013 4119 1484 4856 
L 1984 4856 
z
" transform="scale(0.015625)"/>
       <path id="DejaVuSans-6b" d="M 581 4863 
L 1159 4863 
L 1159 1991 
L 2875 3500 
L 3609 3500 
L 1753 1863 
L 3688 0 
L 2938 0 
L 1159 1709 
L 1159 0 
L 581 0 
L 581 4863 
z
" transform="scale(0.015625)"/>
       <path id="DejaVuSans-6d" d="M 3328 2828 
Q 3544 3216 3844 3400 
Q 4144 3584 4550 3584 
Q 5097 3584 5394 3201 
Q 5691 2819 5691 2113 
L 5691 0 
L 5113 0 
L 5113 2094 
Q 5113 2597 4934 2840 
Q 4756 3084 4391 3084 
Q 3944 3084 3684 2787 
Q 3425 2491 3425 1978 
L 3425 0 
L 2847 0 
L 2847 2094 
Q 2847 2600 2669 2842 
Q 2491 3084 2119 3084 
Q 1678 3084 1418 2786 
Q 1159 2488 1159 1978 
L 1159 0 
L 581 0 
L 581 3500 
L 1159 3500 
L 1159 2956 
Q 1356 3278 1631 3431 
Q 1906 3584 2284 3584 
Q 2666 3584 2933 3390 
Q 3200 3197 3328 2828 
z
" transform="scale(0.015625)"/>
       <path id="DejaVuSans-29" d="M 513 4856 
L 1013 4856 
Q 1481 4119 1714 3412 
Q 1947 2706 1947 2009 
Q 1947 1309 1714 600 
Q 1481 -109 1013 -844 
L 513 -844 
Q 928 -128 1133 580 
Q 1338 1288 1338 2009 
Q 1338 2731 1133 3434 
Q 928 4138 513 4856 
z
" transform="scale(0.015625)"/>
      </defs>
      <use xlink:href="#DejaVuSans-49"/>
      <use xlink:href="#DejaVuSans-73" x="29.492188"/>
      <use xlink:href="#DejaVuSans-6c" x="81.591797"/>
      <use xlink:href="#DejaVuSans-61" x="109.375"/>
      <use xlink:href="#DejaVuSans-6e" x="170.654297"/>
      <use xlink:href="#DejaVuSans-64" x="234.033203"/>
      <use xlink:href="#DejaVuSans-20" x="297.509766"/>
      <use xlink:href="#DejaVuSans-43" x="329.296875"/>
      <use xlink:href="#DejaVuSans-6f" x="399.121094"/>
      <use xlink:href="#DejaVuSans-61" x="460.302734"/>
      <use xlink:href="#DejaVuSans-73" x="521.582031"/>
      <use xlink:href="#DejaVuSans-74" x="573.681641"/>
      <use xlink:href="#DejaVuSans-6c" x="612.890625"/>
      <use xlink:href="#DejaVuSans-69" x="640.673828"/>
      <use xlink:href="#DejaVuSans-6e" x="668.457031"/>
      <use xlink:href="#DejaVuSans-65" x="731.835938"/>
      <use xlink:href="#DejaVuSans-20" x="793.359375"/>
      <use xlink:href="#DejaVuSans-4c" x="825.146484"/>
      <use xlink:href="#DejaVuSans-65" x="879.109375"/>
      <use xlink:href="#DejaVuSans-6e" x="940.632812"/>
      <use xlink:href="#DejaVuSans-67" x="1004.011719"/>
      <use xlink:href="#DejaVuSans-74" x="1067.488281"/>
      <use xlink:href="#DejaVuSans-68" x="1106.697266"/>
      <use xlink:href="#DejaVuSans-20" x="1170.076172"/>
      <use xlink:href="#DejaVuSans-28" x="1201.863281"/>
      <use xlink:href="#DejaVuSans-6b" x="1240.876953"/>
      <use xlink:href="#DejaVuSans-6d" x="1298.787109"/>
      <use xlink:href="#DejaVuSans-29" x="1396.199219"/>
     </g>
    </g>
   </g>
   <g id="matplotlib.axis_2">
    <g id="ytick_1">
     <g id="line2d_55">
      <defs>
       <path id="mea100e4b3d" d="M 0 0 
L -3.5 0 
" style="stroke: #000000; stroke-width: 0.8"/>
      </defs>
      <g>
       <use xlink:href="#mea100e4b3d" x="57.6" y="307.584" style="stroke: #000000; stroke-width: 0.8"/>
      </g>
     </g>
     <g id="text_8">
      <!-- 0 -->
      <g transform="translate(44.2375 311.383219) scale(0.1 -0.1)">
       <use xlink:href="#DejaVuSans-30"/>
      </g>
     </g>
    </g>
    <g id="ytick_2">
     <g id="line2d_56">
      <g>
       <use xlink:href="#mea100e4b3d" x="57.6" y="266.660377" style="stroke: #000000; stroke-width: 0.8"/>
      </g>
     </g>
     <g id="text_9">
      <!-- 1000 -->
      <g transform="translate(25.15 270.459595) scale(0.1 -0.1)">
       <use xlink:href="#DejaVuSans-31"/>
       <use xlink:href="#DejaVuSans-30" x="63.623047"/>
       <use xlink:href="#DejaVuSans-30" x="127.246094"/>
       <use xlink:href="#DejaVuSans-30" x="190.869141"/>
      </g>
     </g>
    </g>
    <g id="ytick_3">
     <g id="line2d_57">
      <g>
       <use xlink:href="#mea100e4b3d" x="57.6" y="225.736753" style="stroke: #000000; stroke-width: 0.8"/>
      </g>
     </g>
     <g id="text_10">
      <!-- 2000 -->
      <g transform="translate(25.15 229.535972) scale(0.1 -0.1)">
       <use xlink:href="#DejaVuSans-32"/>
       <use xlink:href="#DejaVuSans-30" x="63.623047"/>
       <use xlink:href="#DejaVuSans-30" x="127.246094"/>
       <use xlink:href="#DejaVuSans-30" x="190.869141"/>
      </g>
     </g>
    </g>
    <g id="ytick_4">
     <g id="line2d_58">
      <g>
       <use xlink:href="#mea100e4b3d" x="57.6" y="184.81313" style="stroke: #000000; stroke-width: 0.8"/>
      </g>
     </g>
     <g id="text_11">
      <!-- 3000 -->
      <g transform="translate(25.15 188.612348) scale(0.1 -0.1)">
       <use xlink:href="#DejaVuSans-33"/>
       <use xlink:href="#DejaVuSans-30" x="63.623047"/>
       <use xlink:href="#DejaVuSans-30" x="127.246094"/>
       <use xlink:href="#DejaVuSans-30" x="190.869141"/>
      </g>
     </g>
    </g>
    <g id="ytick_5">
     <g id="line2d_59">
      <g>
       <use xlink:href="#mea100e4b3d" x="57.6" y="143.889506" style="stroke: #000000; stroke-width: 0.8"/>
      </g>
     </g>
     <g id="text_12">
      <!-- 4000 -->
      <g transform="translate(25.15 147.688725) scale(0.1 -0.1)">
       <use xlink:href="#DejaVuSans-34"/>
       <use xlink:href="#DejaVuSans-30" x="63.623047"/>
       <use xlink:href="#DejaVuSans-30" x="127.246094"/>
       <use xlink:href="#DejaVuSans-30" x="190.869141"/>
      </g>
     </g>
    </g>
    <g id="ytick_6">
     <g id="line2d_60">
      <g>
       <use xlink:href="#mea100e4b3d" x="57.6" y="102.965883" style="stroke: #000000; stroke-width: 0.8"/>
      </g>
     </g>
     <g id="text_13">
      <!-- 5000 -->
      <g transform="translate(25.15 106.765102) scale(0.1 -0.1)">
       <use xlink:href="#DejaVuSans-35"/>
       <use xlink:href="#DejaVuSans-30" x="63.623047"/>
       <use xlink:href="#DejaVuSans-30" x="127.246094"/>
       <use xlink:href="#DejaVuSans-30" x="190.869141"/>
      </g>
     </g>
    </g>
    <g id="ytick_7">
     <g id="line2d_61">
      <g>
       <use xlink:href="#mea100e4b3d" x="57.6" y="62.042259" style="stroke: #000000; stroke-width: 0.8"/>
      </g>
     </g>
     <g id="text_14">
      <!-- 6000 -->
      <g transform="translate(25.15 65.841478) scale(0.1 -0.1)">
       <defs>
        <path id="DejaVuSans-36" d="M 2113 2584 
Q 1688 2584 1439 2293 
Q 1191 2003 1191 1497 
Q 1191 994 1439 701 
Q 1688 409 2113 409 
Q 2538 409 2786 701 
Q 3034 994 3034 1497 
Q 3034 2003 2786 2293 
Q 2538 2584 2113 2584 
z
M 3366 4563 
L 3366 3988 
Q 3128 4100 2886 4159 
Q 2644 4219 2406 4219 
Q 1781 4219 1451 3797 
Q 1122 3375 1075 2522 
Q 1259 2794 1537 2939 
Q 1816 3084 2150 3084 
Q 2853 3084 3261 2657 
Q 3669 2231 3669 1497 
Q 3669 778 3244 343 
Q 2819 -91 2113 -91 
Q 1303 -91 875 529 
Q 447 1150 447 2328 
Q 447 3434 972 4092 
Q 1497 4750 2381 4750 
Q 2619 4750 2861 4703 
Q 3103 4656 3366 4563 
z
" transform="scale(0.015625)"/>
       </defs>
       <use xlink:href="#DejaVuSans-36"/>
       <use xlink:href="#DejaVuSans-30" x="63.623047"/>
       <use xlink:href="#DejaVuSans-30" x="127.246094"/>
       <use xlink:href="#DejaVuSans-30" x="190.869141"/>
      </g>
     </g>
    </g>
    <g id="text_15">
     <!-- Number of Islands -->
     <g transform="translate(19.070312 220.092062) rotate(-90) scale(0.1 -0.1)">
      <defs>
       <path id="DejaVuSans-4e" d="M 628 4666 
L 1478 4666 
L 3547 763 
L 3547 4666 
L 4159 4666 
L 4159 0 
L 3309 0 
L 1241 3903 
L 1241 0 
L 628 0 
L 628 4666 
z
" transform="scale(0.015625)"/>
       <path id="DejaVuSans-75" d="M 544 1381 
L 544 3500 
L 1119 3500 
L 1119 1403 
Q 1119 906 1312 657 
Q 1506 409 1894 409 
Q 2359 409 2629 706 
Q 2900 1003 2900 1516 
L 2900 3500 
L 3475 3500 
L 3475 0 
L 2900 0 
L 2900 538 
Q 2691 219 2414 64 
Q 2138 -91 1772 -91 
Q 1169 -91 856 284 
Q 544 659 544 1381 
z
M 1991 3584 
L 1991 3584 
z
" transform="scale(0.015625)"/>
       <path id="DejaVuSans-62" d="M 3116 1747 
Q 3116 2381 2855 2742 
Q 2594 3103 2138 3103 
Q 1681 3103 1420 2742 
Q 1159 2381 1159 1747 
Q 1159 1113 1420 752 
Q 1681 391 2138 391 
Q 2594 391 2855 752 
Q 3116 1113 3116 1747 
z
M 1159 2969 
Q 1341 3281 1617 3432 
Q 1894 3584 2278 3584 
Q 2916 3584 3314 3078 
Q 3713 2572 3713 1747 
Q 3713 922 3314 415 
Q 2916 -91 2278 -91 
Q 1894 -91 1617 61 
Q 1341 213 1159 525 
L 1159 0 
L 581 0 
L 581 4863 
L 1159 4863 
L 1159 2969 
z
" transform="scale(0.015625)"/>
       <path id="DejaVuSans-72" d="M 2631 2963 
Q 2534 3019 2420 3045 
Q 2306 3072 2169 3072 
Q 1681 3072 1420 2755 
Q 1159 2438 1159 1844 
L 1159 0 
L 581 0 
L 581 3500 
L 1159 3500 
L 1159 2956 
Q 1341 3275 1631 3429 
Q 1922 3584 2338 3584 
Q 2397 3584 2469 3576 
Q 2541 3569 2628 3553 
L 2631 2963 
z
" transform="scale(0.015625)"/>
       <path id="DejaVuSans-66" d="M 2375 4863 
L 2375 4384 
L 1825 4384 
Q 1516 4384 1395 4259 
Q 1275 4134 1275 3809 
L 1275 3500 
L 2222 3500 
L 2222 3053 
L 1275 3053 
L 1275 0 
L 697 0 
L 697 3053 
L 147 3053 
L 147 3500 
L 697 3500 
L 697 3744 
Q 697 4328 969 4595 
Q 1241 4863 1831 4863 
L 2375 4863 
z
" transform="scale(0.015625)"/>
      </defs>
      <use xlink:href="#DejaVuSans-4e"/>
      <use xlink:href="#DejaVuSans-75" x="74.804688"/>
      <use xlink:href="#DejaVuSans-6d" x="138.183594"/>
      <use xlink:href="#DejaVuSans-62" x="235.595703"/>
      <use xlink:href="#DejaVuSans-65" x="299.072266"/>
      <use xlink:href="#DejaVuSans-72" x="360.595703"/>
      <use xlink:href="#DejaVuSans-20" x="401.708984"/>
      <use xlink:href="#DejaVuSans-6f" x="433.496094"/>
      <use xlink:href="#DejaVuSans-66" x="494.677734"/>
      <use xlink:href="#DejaVuSans-20" x="529.882812"/>
      <use xlink:href="#DejaVuSans-49" x="561.669922"/>
      <use xlink:href="#DejaVuSans-73" x="591.162109"/>
      <use xlink:href="#DejaVuSans-6c" x="643.261719"/>
      <use xlink:href="#DejaVuSans-61" x="671.044922"/>
      <use xlink:href="#DejaVuSans-6e" x="732.324219"/>
      <use xlink:href="#DejaVuSans-64" x="795.703125"/>
      <use xlink:href="#DejaVuSans-73" x="859.179688"/>
     </g>
    </g>
   </g>
   <g id="line2d_62">
    <path d="M 175.382017 307.584 
L 175.382017 41.472 
" clip-path="url(#p3e5f4c56bf)" style="fill: none; stroke-dasharray: 5.55,2.4; stroke-dashoffset: 0; stroke: #ff0000; stroke-width: 1.5"/>
   </g>
   <g id="patch_3">
    <path d="M 57.6 307.584 
L 57.6 41.472 
" style="fill: none; stroke: #000000; stroke-width: 0.8; stroke-linejoin: miter; stroke-linecap: square"/>
   </g>
   <g id="patch_4">
    <path d="M 414.72 307.584 
L 414.72 41.472 
" style="fill: none; stroke: #000000; stroke-width: 0.8; stroke-linejoin: miter; stroke-linecap: square"/>
   </g>
   <g id="patch_5">
    <path d="M 57.6 307.584 
L 414.72 307.584 
" style="fill: none; stroke: #000000; stroke-width: 0.8; stroke-linejoin: miter; stroke-linecap: square"/>
   </g>
   <g id="patch_6">
    <path d="M 57.6 41.472 
L 414.72 41.472 
" style="fill: none; stroke: #000000; stroke-width: 0.8; stroke-linejoin: miter; stroke-linecap: square"/>
   </g>
   <g id="legend_1">
    <g id="patch_7">
     <path d="M 335.080938 93.506375 
L 407.72 93.506375 
Q 409.72 93.506375 409.72 91.506375 
L 409.72 48.472 
Q 409.72 46.472 407.72 46.472 
L 335.080938 46.472 
Q 333.080938 46.472 333.080938 48.472 
L 333.080938 91.506375 
Q 333.080938 93.506375 335.080938 93.506375 
z
" style="fill: #ffffff; opacity: 0.8; stroke: #cccccc; stroke-linejoin: miter"/>
    </g>
    <g id="text_16">
     <!-- Area -->
     <g transform="translate(359.896563 58.070438) scale(0.1 -0.1)">
      <defs>
       <path id="DejaVuSans-41" d="M 2188 4044 
L 1331 1722 
L 3047 1722 
L 2188 4044 
z
M 1831 4666 
L 2547 4666 
L 4325 0 
L 3669 0 
L 3244 1197 
L 1141 1197 
L 716 0 
L 50 0 
L 1831 4666 
z
" transform="scale(0.015625)"/>
      </defs>
      <use xlink:href="#DejaVuSans-41"/>
      <use xlink:href="#DejaVuSans-72" x="68.408203"/>
      <use xlink:href="#DejaVuSans-65" x="107.271484"/>
      <use xlink:href="#DejaVuSans-61" x="168.794922"/>
     </g>
    </g>
    <g id="patch_8">
     <path d="M 337.080938 72.748563 
L 357.080938 72.748563 
L 357.080938 65.748563 
L 337.080938 65.748563 
z
" style="fill: #1f77b4; fill-opacity: 0.25; stroke: #1f77b4; stroke-linejoin: miter"/>
    </g>
    <g id="text_17">
     <!-- &gt; 1 km -->
     <g transform="translate(365.080938 72.748563) scale(0.1 -0.1)">
      <defs>
       <path id="DejaVuSans-3e" d="M 678 3150 
L 678 3719 
L 4684 2266 
L 4684 1747 
L 678 294 
L 678 863 
L 3897 2003 
L 678 3150 
z
" transform="scale(0.015625)"/>
       <path id="DejaVuSans-b2" d="M 838 2444 
L 2163 2444 
L 2163 2088 
L 294 2088 
L 294 2431 
Q 400 2528 597 2703 
Q 1672 3656 1672 3950 
Q 1672 4156 1509 4282 
Q 1347 4409 1081 4409 
Q 919 4409 728 4354 
Q 538 4300 313 4191 
L 313 4575 
Q 553 4663 761 4706 
Q 969 4750 1147 4750 
Q 1600 4750 1872 4544 
Q 2144 4338 2144 4000 
Q 2144 3566 1109 2678 
Q 934 2528 838 2444 
z
" transform="scale(0.015625)"/>
      </defs>
      <use xlink:href="#DejaVuSans-3e"/>
      <use xlink:href="#DejaVuSans-20" x="83.789062"/>
      <use xlink:href="#DejaVuSans-31" x="115.576172"/>
      <use xlink:href="#DejaVuSans-20" x="179.199219"/>
      <use xlink:href="#DejaVuSans-6b" x="210.986328"/>
      <use xlink:href="#DejaVuSans-6d" x="268.896484"/>
      <use xlink:href="#DejaVuSans-b2" x="366.308594"/>
     </g>
    </g>
    <g id="patch_9">
     <path d="M 337.080938 87.426688 
L 357.080938 87.426688 
L 357.080938 80.426688 
L 337.080938 80.426688 
z
" style="fill: #ff7f0e; fill-opacity: 0.25; stroke: #ff7f0e; stroke-linejoin: miter"/>
    </g>
    <g id="text_18">
     <!-- &lt; 1 km -->
     <g transform="translate(365.080938 87.426688) scale(0.1 -0.1)">
      <defs>
       <path id="DejaVuSans-3c" d="M 4684 3150 
L 1459 2003 
L 4684 863 
L 4684 294 
L 678 1747 
L 678 2266 
L 4684 3719 
L 4684 3150 
z
" transform="scale(0.015625)"/>
      </defs>
      <use xlink:href="#DejaVuSans-3c"/>
      <use xlink:href="#DejaVuSans-20" x="83.789062"/>
      <use xlink:href="#DejaVuSans-31" x="115.576172"/>
      <use xlink:href="#DejaVuSans-20" x="179.199219"/>
      <use xlink:href="#DejaVuSans-6b" x="210.986328"/>
      <use xlink:href="#DejaVuSans-6d" x="268.896484"/>
      <use xlink:href="#DejaVuSans-b2" x="366.308594"/>
     </g>
    </g>
   </g>
  </g>
 </g>
 <defs>
  <clipPath id="p3e5f4c56bf">
   <rect x="57.6" y="41.472" width="357.12" height="266.112"/>
  </clipPath>
 </defs>
</svg>
